G04 EAGLE Gerber RS-274X export*
G75*
%MOMM*%
%FSLAX34Y34*%
%LPD*%
%INTop Copper*%
%IPPOS*%
%AMOC8*
5,1,8,0,0,1.08239X$1,22.5*%
G01*
%ADD10C,0.254000*%
%ADD11C,1.320800*%
%ADD12C,1.422400*%

G36*
X16882Y13986D02*
X16882Y13986D01*
X17001Y13993D01*
X17039Y14006D01*
X17080Y14011D01*
X17190Y14054D01*
X17303Y14091D01*
X17338Y14113D01*
X17375Y14128D01*
X17471Y14197D01*
X17572Y14261D01*
X17600Y14291D01*
X17633Y14314D01*
X17709Y14406D01*
X17790Y14493D01*
X17810Y14528D01*
X17835Y14559D01*
X17886Y14667D01*
X17944Y14771D01*
X17954Y14811D01*
X17971Y14847D01*
X17993Y14964D01*
X18023Y15079D01*
X18027Y15139D01*
X18031Y15159D01*
X18029Y15180D01*
X18033Y15240D01*
X18033Y19305D01*
X23326Y19305D01*
X24747Y19080D01*
X26116Y18635D01*
X27399Y17981D01*
X28563Y17135D01*
X29581Y16117D01*
X30427Y14953D01*
X30492Y14826D01*
X30515Y14793D01*
X30530Y14756D01*
X30604Y14662D01*
X30671Y14563D01*
X30701Y14536D01*
X30725Y14505D01*
X30820Y14431D01*
X30909Y14352D01*
X30945Y14334D01*
X30976Y14310D01*
X31086Y14262D01*
X31193Y14208D01*
X31232Y14199D01*
X31268Y14183D01*
X31386Y14164D01*
X31503Y14138D01*
X31543Y14140D01*
X31582Y14133D01*
X31701Y14144D01*
X31821Y14148D01*
X31859Y14159D01*
X31899Y14163D01*
X32011Y14203D01*
X32126Y14237D01*
X32161Y14257D01*
X32198Y14270D01*
X32297Y14338D01*
X32400Y14398D01*
X32428Y14426D01*
X32461Y14449D01*
X32541Y14539D01*
X32625Y14623D01*
X32646Y14657D01*
X32672Y14687D01*
X32754Y14826D01*
X32819Y14953D01*
X33665Y16117D01*
X34683Y17135D01*
X35847Y17981D01*
X37130Y18635D01*
X38499Y19080D01*
X39920Y19305D01*
X45213Y19305D01*
X45213Y15240D01*
X45228Y15122D01*
X45235Y15003D01*
X45247Y14965D01*
X45253Y14924D01*
X45296Y14814D01*
X45333Y14701D01*
X45355Y14666D01*
X45370Y14629D01*
X45439Y14533D01*
X45503Y14432D01*
X45533Y14404D01*
X45556Y14371D01*
X45648Y14295D01*
X45735Y14214D01*
X45770Y14194D01*
X45801Y14169D01*
X45909Y14118D01*
X46013Y14060D01*
X46053Y14050D01*
X46089Y14033D01*
X46206Y14011D01*
X46321Y13981D01*
X46381Y13977D01*
X46401Y13973D01*
X46422Y13975D01*
X46482Y13971D01*
X48006Y13971D01*
X48124Y13986D01*
X48243Y13993D01*
X48281Y14006D01*
X48322Y14011D01*
X48432Y14054D01*
X48545Y14091D01*
X48580Y14113D01*
X48617Y14128D01*
X48713Y14197D01*
X48814Y14261D01*
X48842Y14291D01*
X48875Y14314D01*
X48951Y14406D01*
X49032Y14493D01*
X49052Y14528D01*
X49077Y14559D01*
X49128Y14667D01*
X49186Y14771D01*
X49196Y14811D01*
X49213Y14847D01*
X49235Y14964D01*
X49265Y15079D01*
X49269Y15139D01*
X49273Y15159D01*
X49271Y15180D01*
X49275Y15240D01*
X49275Y19305D01*
X54568Y19305D01*
X55989Y19080D01*
X57358Y18635D01*
X58641Y17981D01*
X59805Y17135D01*
X60823Y16117D01*
X61669Y14953D01*
X61817Y14664D01*
X61894Y14549D01*
X61969Y14432D01*
X61984Y14418D01*
X61995Y14401D01*
X62099Y14309D01*
X62200Y14214D01*
X62218Y14204D01*
X62234Y14190D01*
X62357Y14128D01*
X62479Y14060D01*
X62499Y14055D01*
X62517Y14046D01*
X62653Y14016D01*
X62787Y13981D01*
X62815Y13979D01*
X62827Y13976D01*
X62848Y13977D01*
X62947Y13971D01*
X152630Y13971D01*
X152660Y13974D01*
X152689Y13972D01*
X152817Y13994D01*
X152946Y14011D01*
X152973Y14021D01*
X153002Y14026D01*
X153121Y14080D01*
X153241Y14128D01*
X153265Y14145D01*
X153292Y14157D01*
X153394Y14238D01*
X153499Y14314D01*
X153518Y14337D01*
X153541Y14356D01*
X153619Y14459D01*
X153702Y14559D01*
X153714Y14586D01*
X153732Y14610D01*
X153803Y14754D01*
X154045Y15340D01*
X156618Y17913D01*
X159979Y19305D01*
X176825Y19305D01*
X180186Y17913D01*
X182759Y15340D01*
X182850Y15118D01*
X182919Y14998D01*
X182984Y14875D01*
X182998Y14860D01*
X183008Y14842D01*
X183105Y14742D01*
X183198Y14639D01*
X183215Y14628D01*
X183229Y14614D01*
X183348Y14541D01*
X183464Y14465D01*
X183483Y14458D01*
X183500Y14447D01*
X183633Y14407D01*
X183765Y14361D01*
X183785Y14360D01*
X183804Y14354D01*
X183943Y14347D01*
X184082Y14336D01*
X184102Y14340D01*
X184122Y14339D01*
X184258Y14367D01*
X184395Y14391D01*
X184414Y14399D01*
X184433Y14403D01*
X184559Y14464D01*
X184685Y14521D01*
X184701Y14534D01*
X184719Y14543D01*
X184825Y14633D01*
X184934Y14720D01*
X184946Y14736D01*
X184961Y14749D01*
X185041Y14863D01*
X185125Y14974D01*
X185137Y14999D01*
X185144Y15009D01*
X185151Y15028D01*
X185196Y15118D01*
X185287Y15340D01*
X187860Y17913D01*
X191221Y19305D01*
X200660Y19305D01*
X200778Y19320D01*
X200897Y19327D01*
X200935Y19340D01*
X200976Y19345D01*
X201086Y19388D01*
X201199Y19425D01*
X201234Y19447D01*
X201271Y19462D01*
X201367Y19531D01*
X201468Y19595D01*
X201496Y19625D01*
X201529Y19648D01*
X201605Y19740D01*
X201686Y19827D01*
X201706Y19862D01*
X201731Y19893D01*
X201782Y20001D01*
X201840Y20105D01*
X201850Y20145D01*
X201867Y20181D01*
X201889Y20298D01*
X201919Y20413D01*
X201923Y20473D01*
X201927Y20493D01*
X201925Y20514D01*
X201929Y20574D01*
X201929Y25146D01*
X201914Y25264D01*
X201907Y25383D01*
X201894Y25421D01*
X201889Y25462D01*
X201846Y25572D01*
X201809Y25685D01*
X201787Y25720D01*
X201772Y25757D01*
X201703Y25853D01*
X201639Y25954D01*
X201609Y25982D01*
X201586Y26015D01*
X201494Y26091D01*
X201407Y26172D01*
X201372Y26192D01*
X201341Y26217D01*
X201233Y26268D01*
X201129Y26326D01*
X201089Y26336D01*
X201053Y26353D01*
X200936Y26375D01*
X200821Y26405D01*
X200761Y26409D01*
X200741Y26413D01*
X200720Y26411D01*
X200660Y26415D01*
X191221Y26415D01*
X187860Y27807D01*
X185287Y30380D01*
X185196Y30602D01*
X185127Y30722D01*
X185062Y30845D01*
X185048Y30860D01*
X185038Y30878D01*
X184942Y30978D01*
X184848Y31081D01*
X184831Y31092D01*
X184817Y31106D01*
X184699Y31179D01*
X184582Y31255D01*
X184563Y31262D01*
X184546Y31273D01*
X184413Y31313D01*
X184281Y31359D01*
X184261Y31360D01*
X184242Y31366D01*
X184103Y31373D01*
X183964Y31384D01*
X183944Y31380D01*
X183924Y31381D01*
X183788Y31353D01*
X183651Y31329D01*
X183632Y31321D01*
X183613Y31317D01*
X183488Y31256D01*
X183361Y31199D01*
X183345Y31186D01*
X183327Y31177D01*
X183221Y31087D01*
X183113Y31000D01*
X183100Y30984D01*
X183085Y30971D01*
X183005Y30857D01*
X182921Y30746D01*
X182909Y30721D01*
X182902Y30711D01*
X182895Y30692D01*
X182850Y30602D01*
X182759Y30380D01*
X180186Y27807D01*
X176825Y26415D01*
X159979Y26415D01*
X156618Y27807D01*
X154045Y30380D01*
X152653Y33741D01*
X152653Y37379D01*
X154045Y40740D01*
X156618Y43313D01*
X159979Y44705D01*
X176825Y44705D01*
X180186Y43313D01*
X182759Y40740D01*
X182850Y40518D01*
X182919Y40398D01*
X182984Y40275D01*
X182998Y40260D01*
X183008Y40242D01*
X183105Y40142D01*
X183198Y40039D01*
X183215Y40028D01*
X183229Y40014D01*
X183348Y39941D01*
X183464Y39865D01*
X183483Y39858D01*
X183500Y39847D01*
X183633Y39807D01*
X183765Y39761D01*
X183785Y39760D01*
X183804Y39754D01*
X183943Y39747D01*
X184082Y39736D01*
X184102Y39740D01*
X184122Y39739D01*
X184258Y39767D01*
X184395Y39791D01*
X184414Y39799D01*
X184433Y39803D01*
X184559Y39864D01*
X184685Y39921D01*
X184701Y39934D01*
X184719Y39943D01*
X184825Y40033D01*
X184934Y40120D01*
X184946Y40136D01*
X184961Y40149D01*
X185041Y40263D01*
X185125Y40374D01*
X185137Y40399D01*
X185144Y40409D01*
X185151Y40428D01*
X185196Y40518D01*
X185287Y40740D01*
X187860Y43313D01*
X191221Y44705D01*
X200660Y44705D01*
X200778Y44720D01*
X200897Y44727D01*
X200935Y44740D01*
X200976Y44745D01*
X201086Y44788D01*
X201199Y44825D01*
X201234Y44847D01*
X201271Y44862D01*
X201367Y44931D01*
X201468Y44995D01*
X201496Y45025D01*
X201529Y45048D01*
X201605Y45140D01*
X201686Y45227D01*
X201706Y45262D01*
X201731Y45293D01*
X201782Y45401D01*
X201840Y45505D01*
X201850Y45545D01*
X201867Y45581D01*
X201889Y45698D01*
X201919Y45813D01*
X201923Y45873D01*
X201927Y45893D01*
X201925Y45914D01*
X201929Y45974D01*
X201929Y50546D01*
X201914Y50664D01*
X201907Y50783D01*
X201894Y50821D01*
X201889Y50862D01*
X201846Y50972D01*
X201809Y51085D01*
X201787Y51120D01*
X201772Y51157D01*
X201703Y51253D01*
X201639Y51354D01*
X201609Y51382D01*
X201586Y51415D01*
X201494Y51491D01*
X201407Y51572D01*
X201372Y51592D01*
X201341Y51617D01*
X201233Y51668D01*
X201129Y51726D01*
X201089Y51736D01*
X201053Y51753D01*
X200936Y51775D01*
X200821Y51805D01*
X200761Y51809D01*
X200741Y51813D01*
X200720Y51811D01*
X200660Y51815D01*
X191221Y51815D01*
X187860Y53207D01*
X185287Y55780D01*
X185196Y56002D01*
X185127Y56122D01*
X185062Y56245D01*
X185048Y56260D01*
X185038Y56278D01*
X184942Y56378D01*
X184848Y56481D01*
X184831Y56492D01*
X184817Y56506D01*
X184699Y56579D01*
X184582Y56655D01*
X184563Y56662D01*
X184546Y56673D01*
X184413Y56713D01*
X184281Y56759D01*
X184261Y56760D01*
X184242Y56766D01*
X184103Y56773D01*
X183964Y56784D01*
X183944Y56780D01*
X183924Y56781D01*
X183788Y56753D01*
X183651Y56729D01*
X183632Y56721D01*
X183613Y56717D01*
X183488Y56656D01*
X183361Y56599D01*
X183345Y56586D01*
X183327Y56577D01*
X183221Y56487D01*
X183113Y56400D01*
X183100Y56384D01*
X183085Y56371D01*
X183005Y56257D01*
X182921Y56146D01*
X182909Y56121D01*
X182902Y56111D01*
X182895Y56092D01*
X182850Y56002D01*
X182759Y55780D01*
X180186Y53207D01*
X176825Y51815D01*
X159979Y51815D01*
X156618Y53207D01*
X154045Y55780D01*
X152653Y59141D01*
X152653Y62779D01*
X154045Y66140D01*
X156618Y68713D01*
X159979Y70105D01*
X176825Y70105D01*
X180186Y68713D01*
X182759Y66140D01*
X182850Y65918D01*
X182919Y65798D01*
X182984Y65675D01*
X182998Y65660D01*
X183008Y65642D01*
X183105Y65542D01*
X183198Y65439D01*
X183215Y65428D01*
X183229Y65414D01*
X183348Y65341D01*
X183464Y65265D01*
X183483Y65258D01*
X183500Y65247D01*
X183633Y65207D01*
X183765Y65161D01*
X183785Y65160D01*
X183804Y65154D01*
X183943Y65147D01*
X184082Y65136D01*
X184102Y65140D01*
X184122Y65139D01*
X184258Y65167D01*
X184395Y65191D01*
X184414Y65199D01*
X184433Y65203D01*
X184559Y65264D01*
X184685Y65321D01*
X184701Y65334D01*
X184719Y65343D01*
X184825Y65433D01*
X184934Y65520D01*
X184946Y65536D01*
X184961Y65549D01*
X185041Y65663D01*
X185125Y65774D01*
X185137Y65799D01*
X185144Y65809D01*
X185151Y65828D01*
X185196Y65918D01*
X185287Y66140D01*
X187860Y68713D01*
X191221Y70105D01*
X200660Y70105D01*
X200778Y70120D01*
X200897Y70127D01*
X200935Y70140D01*
X200976Y70145D01*
X201086Y70188D01*
X201199Y70225D01*
X201234Y70247D01*
X201271Y70262D01*
X201367Y70331D01*
X201468Y70395D01*
X201496Y70425D01*
X201529Y70448D01*
X201605Y70540D01*
X201686Y70627D01*
X201706Y70662D01*
X201731Y70693D01*
X201782Y70801D01*
X201840Y70905D01*
X201850Y70945D01*
X201867Y70981D01*
X201889Y71098D01*
X201919Y71213D01*
X201923Y71273D01*
X201927Y71293D01*
X201925Y71314D01*
X201929Y71374D01*
X201929Y75946D01*
X201914Y76064D01*
X201907Y76183D01*
X201894Y76221D01*
X201889Y76262D01*
X201846Y76372D01*
X201809Y76485D01*
X201787Y76520D01*
X201772Y76557D01*
X201703Y76653D01*
X201639Y76754D01*
X201609Y76782D01*
X201586Y76815D01*
X201494Y76891D01*
X201407Y76972D01*
X201372Y76992D01*
X201341Y77017D01*
X201233Y77068D01*
X201129Y77126D01*
X201089Y77136D01*
X201053Y77153D01*
X200936Y77175D01*
X200821Y77205D01*
X200761Y77209D01*
X200741Y77213D01*
X200720Y77211D01*
X200660Y77215D01*
X191221Y77215D01*
X187860Y78607D01*
X185287Y81180D01*
X185196Y81402D01*
X185127Y81522D01*
X185062Y81645D01*
X185048Y81660D01*
X185038Y81678D01*
X184942Y81778D01*
X184848Y81881D01*
X184831Y81892D01*
X184817Y81906D01*
X184699Y81979D01*
X184582Y82055D01*
X184563Y82062D01*
X184546Y82073D01*
X184413Y82113D01*
X184281Y82159D01*
X184261Y82160D01*
X184242Y82166D01*
X184103Y82173D01*
X183964Y82184D01*
X183944Y82180D01*
X183924Y82181D01*
X183788Y82153D01*
X183651Y82129D01*
X183632Y82121D01*
X183613Y82117D01*
X183488Y82056D01*
X183361Y81999D01*
X183345Y81986D01*
X183327Y81977D01*
X183221Y81887D01*
X183113Y81800D01*
X183100Y81784D01*
X183085Y81771D01*
X183005Y81657D01*
X182921Y81546D01*
X182909Y81521D01*
X182902Y81511D01*
X182895Y81492D01*
X182850Y81402D01*
X182759Y81180D01*
X180186Y78607D01*
X176825Y77215D01*
X159979Y77215D01*
X156618Y78607D01*
X154045Y81180D01*
X152653Y84541D01*
X152653Y88179D01*
X154045Y91540D01*
X156618Y94113D01*
X159979Y95505D01*
X176825Y95505D01*
X180186Y94113D01*
X182759Y91540D01*
X182850Y91318D01*
X182919Y91198D01*
X182984Y91075D01*
X182998Y91060D01*
X183008Y91042D01*
X183105Y90942D01*
X183198Y90839D01*
X183215Y90828D01*
X183229Y90814D01*
X183348Y90741D01*
X183464Y90665D01*
X183483Y90658D01*
X183500Y90647D01*
X183633Y90607D01*
X183765Y90561D01*
X183785Y90560D01*
X183804Y90554D01*
X183943Y90547D01*
X184082Y90536D01*
X184102Y90540D01*
X184122Y90539D01*
X184258Y90567D01*
X184395Y90591D01*
X184414Y90599D01*
X184433Y90603D01*
X184559Y90664D01*
X184685Y90721D01*
X184701Y90734D01*
X184719Y90743D01*
X184825Y90833D01*
X184934Y90920D01*
X184946Y90936D01*
X184961Y90949D01*
X185041Y91063D01*
X185125Y91174D01*
X185137Y91199D01*
X185144Y91209D01*
X185151Y91228D01*
X185196Y91318D01*
X185287Y91540D01*
X187860Y94113D01*
X191221Y95505D01*
X200660Y95505D01*
X200778Y95520D01*
X200897Y95527D01*
X200935Y95540D01*
X200976Y95545D01*
X201086Y95588D01*
X201199Y95625D01*
X201234Y95647D01*
X201271Y95662D01*
X201367Y95731D01*
X201468Y95795D01*
X201496Y95825D01*
X201529Y95848D01*
X201605Y95940D01*
X201686Y96027D01*
X201706Y96062D01*
X201731Y96093D01*
X201782Y96201D01*
X201840Y96305D01*
X201850Y96345D01*
X201867Y96381D01*
X201889Y96498D01*
X201919Y96613D01*
X201923Y96673D01*
X201927Y96693D01*
X201925Y96714D01*
X201929Y96774D01*
X201929Y101346D01*
X201914Y101464D01*
X201907Y101583D01*
X201894Y101621D01*
X201889Y101662D01*
X201846Y101772D01*
X201809Y101885D01*
X201787Y101920D01*
X201772Y101957D01*
X201703Y102053D01*
X201639Y102154D01*
X201609Y102182D01*
X201586Y102215D01*
X201494Y102291D01*
X201407Y102372D01*
X201372Y102392D01*
X201341Y102417D01*
X201233Y102468D01*
X201129Y102526D01*
X201089Y102536D01*
X201053Y102553D01*
X200936Y102575D01*
X200821Y102605D01*
X200761Y102609D01*
X200741Y102613D01*
X200720Y102611D01*
X200660Y102615D01*
X191221Y102615D01*
X187860Y104007D01*
X185287Y106580D01*
X185196Y106802D01*
X185127Y106922D01*
X185062Y107045D01*
X185048Y107060D01*
X185038Y107078D01*
X184942Y107178D01*
X184848Y107281D01*
X184831Y107292D01*
X184817Y107306D01*
X184699Y107379D01*
X184582Y107455D01*
X184563Y107462D01*
X184546Y107473D01*
X184413Y107513D01*
X184281Y107559D01*
X184261Y107560D01*
X184242Y107566D01*
X184103Y107573D01*
X183964Y107584D01*
X183944Y107580D01*
X183924Y107581D01*
X183788Y107553D01*
X183651Y107529D01*
X183632Y107521D01*
X183613Y107517D01*
X183488Y107456D01*
X183361Y107399D01*
X183345Y107386D01*
X183327Y107377D01*
X183221Y107287D01*
X183113Y107200D01*
X183100Y107184D01*
X183085Y107171D01*
X183005Y107057D01*
X182921Y106946D01*
X182909Y106921D01*
X182902Y106911D01*
X182895Y106892D01*
X182850Y106802D01*
X182759Y106580D01*
X180186Y104007D01*
X176825Y102615D01*
X159979Y102615D01*
X156618Y104007D01*
X154045Y106580D01*
X152653Y109941D01*
X152653Y113579D01*
X154045Y116940D01*
X156618Y119513D01*
X159979Y120905D01*
X176825Y120905D01*
X180186Y119513D01*
X182759Y116940D01*
X182850Y116718D01*
X182919Y116598D01*
X182984Y116475D01*
X182998Y116460D01*
X183008Y116442D01*
X183105Y116342D01*
X183198Y116239D01*
X183215Y116228D01*
X183229Y116214D01*
X183348Y116141D01*
X183464Y116065D01*
X183483Y116058D01*
X183500Y116047D01*
X183633Y116007D01*
X183765Y115961D01*
X183785Y115960D01*
X183804Y115954D01*
X183943Y115947D01*
X184082Y115936D01*
X184102Y115940D01*
X184122Y115939D01*
X184258Y115967D01*
X184395Y115991D01*
X184414Y115999D01*
X184433Y116003D01*
X184559Y116064D01*
X184685Y116121D01*
X184701Y116134D01*
X184719Y116143D01*
X184825Y116233D01*
X184934Y116320D01*
X184946Y116336D01*
X184961Y116349D01*
X185041Y116463D01*
X185125Y116574D01*
X185137Y116599D01*
X185144Y116609D01*
X185151Y116628D01*
X185196Y116718D01*
X185287Y116940D01*
X187860Y119513D01*
X191221Y120905D01*
X200660Y120905D01*
X200778Y120920D01*
X200897Y120927D01*
X200935Y120940D01*
X200976Y120945D01*
X201086Y120988D01*
X201199Y121025D01*
X201234Y121047D01*
X201271Y121062D01*
X201367Y121131D01*
X201468Y121195D01*
X201496Y121225D01*
X201529Y121248D01*
X201605Y121340D01*
X201686Y121427D01*
X201706Y121462D01*
X201731Y121493D01*
X201782Y121601D01*
X201840Y121705D01*
X201850Y121745D01*
X201867Y121781D01*
X201889Y121898D01*
X201919Y122013D01*
X201923Y122073D01*
X201927Y122093D01*
X201925Y122114D01*
X201929Y122174D01*
X201929Y126746D01*
X201914Y126864D01*
X201907Y126983D01*
X201894Y127021D01*
X201889Y127062D01*
X201846Y127172D01*
X201809Y127285D01*
X201787Y127320D01*
X201772Y127357D01*
X201703Y127453D01*
X201639Y127554D01*
X201609Y127582D01*
X201586Y127615D01*
X201494Y127691D01*
X201407Y127772D01*
X201372Y127792D01*
X201341Y127817D01*
X201233Y127868D01*
X201129Y127926D01*
X201089Y127936D01*
X201053Y127953D01*
X200936Y127975D01*
X200821Y128005D01*
X200761Y128009D01*
X200741Y128013D01*
X200720Y128011D01*
X200660Y128015D01*
X191221Y128015D01*
X187860Y129407D01*
X185287Y131980D01*
X185196Y132202D01*
X185127Y132322D01*
X185062Y132445D01*
X185048Y132460D01*
X185038Y132478D01*
X184942Y132578D01*
X184848Y132681D01*
X184831Y132692D01*
X184817Y132706D01*
X184699Y132779D01*
X184582Y132855D01*
X184563Y132862D01*
X184546Y132873D01*
X184413Y132913D01*
X184281Y132959D01*
X184261Y132960D01*
X184242Y132966D01*
X184103Y132973D01*
X183964Y132984D01*
X183944Y132980D01*
X183924Y132981D01*
X183788Y132953D01*
X183651Y132929D01*
X183632Y132921D01*
X183613Y132917D01*
X183488Y132856D01*
X183361Y132799D01*
X183345Y132786D01*
X183327Y132777D01*
X183221Y132687D01*
X183113Y132600D01*
X183100Y132584D01*
X183085Y132571D01*
X183005Y132457D01*
X182921Y132346D01*
X182909Y132321D01*
X182902Y132311D01*
X182895Y132292D01*
X182850Y132202D01*
X182759Y131980D01*
X180186Y129407D01*
X176825Y128015D01*
X159979Y128015D01*
X156618Y129407D01*
X154045Y131980D01*
X152653Y135341D01*
X152653Y138979D01*
X154045Y142340D01*
X155588Y143883D01*
X155673Y143992D01*
X155762Y144099D01*
X155770Y144118D01*
X155783Y144134D01*
X155838Y144262D01*
X155897Y144387D01*
X155901Y144407D01*
X155909Y144426D01*
X155931Y144564D01*
X155957Y144700D01*
X155956Y144720D01*
X155959Y144740D01*
X155946Y144879D01*
X155937Y145017D01*
X155931Y145036D01*
X155929Y145056D01*
X155882Y145188D01*
X155839Y145319D01*
X155829Y145337D01*
X155822Y145356D01*
X155744Y145471D01*
X155669Y145588D01*
X155654Y145602D01*
X155643Y145619D01*
X155539Y145711D01*
X155438Y145806D01*
X155420Y145816D01*
X155405Y145829D01*
X155281Y145893D01*
X155159Y145960D01*
X155140Y145965D01*
X155121Y145974D01*
X154986Y146004D01*
X154851Y146039D01*
X154823Y146041D01*
X154811Y146044D01*
X154791Y146043D01*
X154690Y146049D01*
X151656Y146049D01*
X145587Y148563D01*
X140943Y153207D01*
X138429Y159276D01*
X138429Y305102D01*
X138417Y305200D01*
X138414Y305299D01*
X138397Y305357D01*
X138389Y305417D01*
X138353Y305510D01*
X138325Y305605D01*
X138295Y305657D01*
X138272Y305713D01*
X138214Y305793D01*
X138164Y305879D01*
X138098Y305954D01*
X138086Y305971D01*
X138076Y305978D01*
X138058Y305999D01*
X136597Y307460D01*
X135127Y311008D01*
X135127Y322580D01*
X135112Y322698D01*
X135105Y322817D01*
X135092Y322855D01*
X135087Y322896D01*
X135044Y323006D01*
X135007Y323119D01*
X134985Y323154D01*
X134970Y323191D01*
X134901Y323287D01*
X134837Y323388D01*
X134807Y323416D01*
X134784Y323449D01*
X134692Y323525D01*
X134605Y323606D01*
X134570Y323626D01*
X134539Y323651D01*
X134431Y323702D01*
X134327Y323760D01*
X134287Y323770D01*
X134251Y323787D01*
X134134Y323809D01*
X134019Y323839D01*
X133959Y323843D01*
X133939Y323847D01*
X133918Y323845D01*
X133858Y323849D01*
X130302Y323849D01*
X130184Y323834D01*
X130065Y323827D01*
X130027Y323814D01*
X129986Y323809D01*
X129876Y323766D01*
X129763Y323729D01*
X129728Y323707D01*
X129691Y323692D01*
X129595Y323623D01*
X129494Y323559D01*
X129466Y323529D01*
X129433Y323506D01*
X129357Y323414D01*
X129276Y323327D01*
X129256Y323292D01*
X129231Y323261D01*
X129180Y323153D01*
X129122Y323049D01*
X129112Y323009D01*
X129095Y322973D01*
X129073Y322856D01*
X129043Y322741D01*
X129039Y322681D01*
X129035Y322661D01*
X129037Y322640D01*
X129033Y322580D01*
X129033Y311008D01*
X127563Y307460D01*
X124848Y304745D01*
X121300Y303275D01*
X117460Y303275D01*
X113912Y304745D01*
X111197Y307460D01*
X109727Y311008D01*
X109727Y322580D01*
X109712Y322698D01*
X109705Y322817D01*
X109692Y322855D01*
X109687Y322896D01*
X109644Y323006D01*
X109607Y323119D01*
X109585Y323154D01*
X109570Y323191D01*
X109501Y323287D01*
X109437Y323388D01*
X109407Y323416D01*
X109384Y323449D01*
X109292Y323525D01*
X109205Y323606D01*
X109170Y323626D01*
X109139Y323651D01*
X109031Y323702D01*
X108927Y323760D01*
X108887Y323770D01*
X108851Y323787D01*
X108734Y323809D01*
X108619Y323839D01*
X108559Y323843D01*
X108539Y323847D01*
X108518Y323845D01*
X108458Y323849D01*
X104648Y323849D01*
X104530Y323834D01*
X104411Y323827D01*
X104373Y323814D01*
X104332Y323809D01*
X104222Y323766D01*
X104109Y323729D01*
X104074Y323707D01*
X104037Y323692D01*
X103941Y323623D01*
X103840Y323559D01*
X103812Y323529D01*
X103779Y323506D01*
X103703Y323414D01*
X103622Y323327D01*
X103602Y323292D01*
X103577Y323261D01*
X103526Y323153D01*
X103468Y323049D01*
X103458Y323009D01*
X103441Y322973D01*
X103419Y322856D01*
X103389Y322741D01*
X103385Y322681D01*
X103381Y322661D01*
X103383Y322640D01*
X103379Y322580D01*
X103379Y310754D01*
X101909Y307206D01*
X99194Y304491D01*
X95646Y303021D01*
X91806Y303021D01*
X88258Y304491D01*
X85543Y307206D01*
X84073Y310754D01*
X84073Y322580D01*
X84058Y322698D01*
X84051Y322817D01*
X84038Y322855D01*
X84033Y322896D01*
X83990Y323006D01*
X83953Y323119D01*
X83931Y323154D01*
X83916Y323191D01*
X83847Y323287D01*
X83783Y323388D01*
X83753Y323416D01*
X83730Y323449D01*
X83638Y323525D01*
X83551Y323606D01*
X83516Y323626D01*
X83485Y323651D01*
X83377Y323702D01*
X83273Y323760D01*
X83233Y323770D01*
X83197Y323787D01*
X83080Y323809D01*
X82965Y323839D01*
X82905Y323843D01*
X82885Y323847D01*
X82864Y323845D01*
X82804Y323849D01*
X79248Y323849D01*
X79130Y323834D01*
X79011Y323827D01*
X78973Y323814D01*
X78932Y323809D01*
X78822Y323766D01*
X78709Y323729D01*
X78674Y323707D01*
X78637Y323692D01*
X78541Y323623D01*
X78440Y323559D01*
X78412Y323529D01*
X78379Y323506D01*
X78303Y323414D01*
X78222Y323327D01*
X78202Y323292D01*
X78177Y323261D01*
X78126Y323153D01*
X78068Y323049D01*
X78058Y323009D01*
X78041Y322973D01*
X78019Y322856D01*
X77989Y322741D01*
X77985Y322681D01*
X77981Y322661D01*
X77983Y322640D01*
X77979Y322580D01*
X77979Y322071D01*
X69342Y322071D01*
X69224Y322056D01*
X69105Y322049D01*
X69067Y322036D01*
X69027Y322031D01*
X68916Y321988D01*
X68803Y321951D01*
X68769Y321929D01*
X68731Y321914D01*
X68635Y321845D01*
X68534Y321781D01*
X68506Y321751D01*
X68474Y321728D01*
X68398Y321636D01*
X68323Y321556D01*
X68289Y321610D01*
X68259Y321638D01*
X68235Y321671D01*
X68144Y321747D01*
X68057Y321828D01*
X68022Y321848D01*
X67990Y321873D01*
X67883Y321924D01*
X67778Y321982D01*
X67739Y321992D01*
X67703Y322009D01*
X67586Y322031D01*
X67470Y322061D01*
X67410Y322065D01*
X67390Y322069D01*
X67370Y322067D01*
X67310Y322071D01*
X58673Y322071D01*
X58673Y322580D01*
X58658Y322698D01*
X58651Y322817D01*
X58638Y322855D01*
X58633Y322896D01*
X58590Y323006D01*
X58553Y323119D01*
X58531Y323154D01*
X58516Y323191D01*
X58447Y323287D01*
X58383Y323388D01*
X58353Y323416D01*
X58330Y323449D01*
X58238Y323525D01*
X58151Y323606D01*
X58116Y323626D01*
X58085Y323651D01*
X57977Y323702D01*
X57873Y323760D01*
X57833Y323770D01*
X57797Y323787D01*
X57680Y323809D01*
X57565Y323839D01*
X57505Y323843D01*
X57485Y323847D01*
X57464Y323845D01*
X57404Y323849D01*
X56882Y323849D01*
X56764Y323834D01*
X56645Y323827D01*
X56606Y323814D01*
X56566Y323809D01*
X56456Y323766D01*
X56342Y323729D01*
X56308Y323707D01*
X56271Y323692D01*
X56174Y323623D01*
X56074Y323559D01*
X56046Y323529D01*
X56013Y323506D01*
X55937Y323414D01*
X55856Y323327D01*
X55836Y323292D01*
X55810Y323261D01*
X55760Y323153D01*
X55702Y323049D01*
X55692Y323009D01*
X55675Y322973D01*
X55653Y322856D01*
X55623Y322741D01*
X55619Y322681D01*
X55615Y322661D01*
X55616Y322640D01*
X55613Y322580D01*
X55613Y322280D01*
X53009Y319676D01*
X53008Y319676D01*
X53000Y319667D01*
X52915Y319558D01*
X52826Y319451D01*
X52817Y319432D01*
X52805Y319416D01*
X52749Y319288D01*
X52690Y319163D01*
X52687Y319143D01*
X52678Y319124D01*
X52657Y318986D01*
X52631Y318850D01*
X52632Y318830D01*
X52629Y318810D01*
X52642Y318671D01*
X52650Y318533D01*
X52657Y318514D01*
X52658Y318494D01*
X52706Y318362D01*
X52748Y318231D01*
X52759Y318213D01*
X52766Y318194D01*
X52844Y318079D01*
X52919Y317962D01*
X52933Y317948D01*
X52945Y317931D01*
X52999Y317883D01*
X53009Y317872D01*
X55613Y315268D01*
X55613Y312112D01*
X53380Y309879D01*
X40055Y309879D01*
X37822Y312112D01*
X37822Y315255D01*
X37805Y315393D01*
X37792Y315532D01*
X37785Y315551D01*
X37783Y315571D01*
X37731Y315700D01*
X37684Y315831D01*
X37673Y315848D01*
X37666Y315866D01*
X37584Y315979D01*
X37506Y316094D01*
X37491Y316107D01*
X37479Y316124D01*
X37371Y316213D01*
X37267Y316305D01*
X37249Y316314D01*
X37234Y316327D01*
X37108Y316386D01*
X36984Y316449D01*
X36964Y316454D01*
X36946Y316462D01*
X36810Y316488D01*
X36674Y316519D01*
X36654Y316518D01*
X36634Y316522D01*
X36495Y316513D01*
X36356Y316509D01*
X36336Y316503D01*
X36316Y316502D01*
X36184Y316459D01*
X36050Y316421D01*
X36033Y316410D01*
X36014Y316404D01*
X35896Y316330D01*
X35776Y316259D01*
X35755Y316241D01*
X35745Y316234D01*
X35731Y316219D01*
X35656Y316153D01*
X34467Y314964D01*
X30342Y314964D01*
X30223Y314949D01*
X30105Y314941D01*
X30066Y314929D01*
X30026Y314924D01*
X29915Y314880D01*
X29802Y314843D01*
X29768Y314822D01*
X29730Y314807D01*
X29634Y314737D01*
X29533Y314673D01*
X29506Y314644D01*
X29473Y314620D01*
X29397Y314528D01*
X29315Y314441D01*
X29296Y314406D01*
X29270Y314375D01*
X29219Y314267D01*
X29162Y314163D01*
X29152Y314124D01*
X29135Y314087D01*
X29112Y313970D01*
X29083Y313855D01*
X29079Y313795D01*
X29075Y313775D01*
X29076Y313755D01*
X29072Y313694D01*
X29072Y312112D01*
X26840Y309879D01*
X23683Y309879D01*
X21451Y312112D01*
X21451Y312713D01*
X21433Y312851D01*
X21420Y312989D01*
X21414Y313008D01*
X21411Y313029D01*
X21360Y313158D01*
X21313Y313289D01*
X21301Y313306D01*
X21294Y313324D01*
X21212Y313437D01*
X21134Y313552D01*
X21119Y313565D01*
X21107Y313582D01*
X21000Y313670D01*
X20896Y313762D01*
X20878Y313772D01*
X20862Y313784D01*
X20736Y313844D01*
X20613Y313907D01*
X20593Y313911D01*
X20574Y313920D01*
X20438Y313946D01*
X20302Y313977D01*
X20282Y313976D01*
X20262Y313980D01*
X20124Y313971D01*
X19984Y313967D01*
X19965Y313961D01*
X19945Y313960D01*
X19813Y313917D01*
X19679Y313879D01*
X19661Y313868D01*
X19642Y313862D01*
X19525Y313788D01*
X19405Y313717D01*
X19384Y313698D01*
X19373Y313692D01*
X19359Y313677D01*
X19284Y313611D01*
X17723Y312050D01*
X15553Y309879D01*
X15240Y309879D01*
X15122Y309864D01*
X15003Y309857D01*
X14965Y309844D01*
X14924Y309839D01*
X14814Y309796D01*
X14701Y309759D01*
X14666Y309737D01*
X14629Y309722D01*
X14533Y309653D01*
X14432Y309589D01*
X14404Y309559D01*
X14371Y309536D01*
X14295Y309444D01*
X14214Y309357D01*
X14194Y309322D01*
X14169Y309291D01*
X14118Y309183D01*
X14060Y309079D01*
X14050Y309039D01*
X14033Y309003D01*
X14011Y308886D01*
X13981Y308771D01*
X13977Y308711D01*
X13973Y308691D01*
X13975Y308670D01*
X13971Y308610D01*
X13971Y299974D01*
X13986Y299856D01*
X13993Y299737D01*
X14006Y299699D01*
X14011Y299658D01*
X14054Y299548D01*
X14091Y299435D01*
X14113Y299400D01*
X14128Y299363D01*
X14197Y299267D01*
X14261Y299166D01*
X14291Y299138D01*
X14314Y299105D01*
X14406Y299029D01*
X14493Y298948D01*
X14528Y298928D01*
X14559Y298903D01*
X14667Y298852D01*
X14771Y298794D01*
X14811Y298784D01*
X14847Y298767D01*
X14964Y298745D01*
X15079Y298715D01*
X15139Y298711D01*
X15159Y298707D01*
X15180Y298709D01*
X15240Y298705D01*
X24425Y298705D01*
X27786Y297313D01*
X30359Y294740D01*
X30450Y294518D01*
X30519Y294398D01*
X30584Y294275D01*
X30598Y294260D01*
X30608Y294242D01*
X30704Y294142D01*
X30798Y294039D01*
X30815Y294028D01*
X30829Y294014D01*
X30947Y293941D01*
X31064Y293865D01*
X31083Y293858D01*
X31100Y293847D01*
X31233Y293807D01*
X31365Y293761D01*
X31385Y293760D01*
X31404Y293754D01*
X31543Y293747D01*
X31682Y293736D01*
X31702Y293740D01*
X31722Y293739D01*
X31858Y293767D01*
X31995Y293791D01*
X32014Y293799D01*
X32033Y293803D01*
X32158Y293864D01*
X32285Y293921D01*
X32301Y293934D01*
X32319Y293943D01*
X32425Y294033D01*
X32533Y294120D01*
X32546Y294136D01*
X32561Y294149D01*
X32641Y294263D01*
X32725Y294374D01*
X32737Y294399D01*
X32744Y294409D01*
X32751Y294428D01*
X32796Y294518D01*
X32887Y294740D01*
X35460Y297313D01*
X38821Y298705D01*
X55667Y298705D01*
X59028Y297313D01*
X61601Y294740D01*
X62993Y291379D01*
X62993Y287741D01*
X61601Y284380D01*
X59028Y281807D01*
X55667Y280415D01*
X38821Y280415D01*
X35460Y281807D01*
X32887Y284380D01*
X32796Y284602D01*
X32727Y284722D01*
X32662Y284845D01*
X32648Y284860D01*
X32638Y284878D01*
X32541Y284978D01*
X32448Y285081D01*
X32431Y285092D01*
X32417Y285106D01*
X32298Y285179D01*
X32182Y285255D01*
X32163Y285262D01*
X32146Y285273D01*
X32013Y285313D01*
X31881Y285359D01*
X31861Y285360D01*
X31842Y285366D01*
X31703Y285373D01*
X31564Y285384D01*
X31544Y285380D01*
X31524Y285381D01*
X31388Y285353D01*
X31251Y285329D01*
X31232Y285321D01*
X31213Y285317D01*
X31087Y285256D01*
X30961Y285199D01*
X30945Y285186D01*
X30927Y285177D01*
X30821Y285087D01*
X30712Y285000D01*
X30700Y284984D01*
X30685Y284971D01*
X30605Y284857D01*
X30521Y284746D01*
X30509Y284721D01*
X30502Y284711D01*
X30495Y284692D01*
X30450Y284602D01*
X30359Y284380D01*
X27786Y281807D01*
X24425Y280415D01*
X15240Y280415D01*
X15122Y280400D01*
X15003Y280393D01*
X14965Y280380D01*
X14924Y280375D01*
X14814Y280332D01*
X14701Y280295D01*
X14666Y280273D01*
X14629Y280258D01*
X14533Y280189D01*
X14432Y280125D01*
X14404Y280095D01*
X14371Y280072D01*
X14295Y279980D01*
X14214Y279893D01*
X14194Y279858D01*
X14169Y279827D01*
X14118Y279719D01*
X14060Y279615D01*
X14050Y279575D01*
X14033Y279539D01*
X14011Y279422D01*
X13981Y279307D01*
X13977Y279247D01*
X13973Y279227D01*
X13975Y279206D01*
X13971Y279146D01*
X13971Y274574D01*
X13986Y274456D01*
X13993Y274337D01*
X14006Y274299D01*
X14011Y274258D01*
X14054Y274148D01*
X14091Y274035D01*
X14113Y274000D01*
X14128Y273963D01*
X14197Y273867D01*
X14261Y273766D01*
X14291Y273738D01*
X14314Y273705D01*
X14406Y273629D01*
X14493Y273548D01*
X14528Y273528D01*
X14559Y273503D01*
X14667Y273452D01*
X14771Y273394D01*
X14811Y273384D01*
X14847Y273367D01*
X14964Y273345D01*
X15079Y273315D01*
X15139Y273311D01*
X15159Y273307D01*
X15180Y273309D01*
X15240Y273305D01*
X24425Y273305D01*
X27786Y271913D01*
X30359Y269340D01*
X30450Y269118D01*
X30519Y268998D01*
X30584Y268875D01*
X30598Y268860D01*
X30608Y268842D01*
X30704Y268742D01*
X30798Y268639D01*
X30815Y268628D01*
X30829Y268614D01*
X30947Y268541D01*
X31064Y268465D01*
X31083Y268458D01*
X31100Y268447D01*
X31233Y268407D01*
X31365Y268361D01*
X31385Y268360D01*
X31404Y268354D01*
X31543Y268347D01*
X31682Y268336D01*
X31702Y268340D01*
X31722Y268339D01*
X31858Y268367D01*
X31995Y268391D01*
X32014Y268399D01*
X32033Y268403D01*
X32158Y268464D01*
X32285Y268521D01*
X32301Y268534D01*
X32319Y268543D01*
X32425Y268633D01*
X32533Y268720D01*
X32546Y268736D01*
X32561Y268749D01*
X32641Y268863D01*
X32725Y268974D01*
X32737Y268999D01*
X32744Y269009D01*
X32751Y269028D01*
X32796Y269118D01*
X32887Y269340D01*
X35460Y271913D01*
X38821Y273305D01*
X55667Y273305D01*
X59028Y271913D01*
X61601Y269340D01*
X62993Y265979D01*
X62993Y262341D01*
X61601Y258980D01*
X59028Y256407D01*
X55667Y255015D01*
X38821Y255015D01*
X35460Y256407D01*
X32887Y258980D01*
X32796Y259202D01*
X32727Y259322D01*
X32662Y259445D01*
X32648Y259460D01*
X32638Y259478D01*
X32541Y259578D01*
X32448Y259681D01*
X32431Y259692D01*
X32417Y259706D01*
X32298Y259779D01*
X32182Y259855D01*
X32163Y259862D01*
X32146Y259873D01*
X32013Y259913D01*
X31881Y259959D01*
X31861Y259960D01*
X31842Y259966D01*
X31703Y259973D01*
X31564Y259984D01*
X31544Y259980D01*
X31524Y259981D01*
X31388Y259953D01*
X31251Y259929D01*
X31232Y259921D01*
X31213Y259917D01*
X31087Y259856D01*
X30961Y259799D01*
X30945Y259786D01*
X30927Y259777D01*
X30821Y259687D01*
X30712Y259600D01*
X30700Y259584D01*
X30685Y259571D01*
X30605Y259457D01*
X30521Y259346D01*
X30509Y259321D01*
X30502Y259311D01*
X30495Y259292D01*
X30450Y259202D01*
X30359Y258980D01*
X27786Y256407D01*
X24425Y255015D01*
X15240Y255015D01*
X15122Y255000D01*
X15003Y254993D01*
X14965Y254980D01*
X14924Y254975D01*
X14814Y254932D01*
X14701Y254895D01*
X14666Y254873D01*
X14629Y254858D01*
X14533Y254789D01*
X14432Y254725D01*
X14404Y254695D01*
X14371Y254672D01*
X14295Y254580D01*
X14214Y254493D01*
X14194Y254458D01*
X14169Y254427D01*
X14118Y254319D01*
X14060Y254215D01*
X14050Y254175D01*
X14033Y254139D01*
X14011Y254022D01*
X13981Y253907D01*
X13977Y253847D01*
X13973Y253827D01*
X13975Y253806D01*
X13971Y253746D01*
X13971Y249174D01*
X13986Y249056D01*
X13993Y248937D01*
X14006Y248899D01*
X14011Y248858D01*
X14054Y248748D01*
X14091Y248635D01*
X14113Y248600D01*
X14128Y248563D01*
X14197Y248467D01*
X14261Y248366D01*
X14291Y248338D01*
X14314Y248305D01*
X14406Y248229D01*
X14493Y248148D01*
X14528Y248128D01*
X14559Y248103D01*
X14667Y248052D01*
X14771Y247994D01*
X14811Y247984D01*
X14847Y247967D01*
X14964Y247945D01*
X15079Y247915D01*
X15139Y247911D01*
X15159Y247907D01*
X15180Y247909D01*
X15240Y247905D01*
X24425Y247905D01*
X27786Y246513D01*
X30359Y243940D01*
X30450Y243718D01*
X30519Y243598D01*
X30584Y243475D01*
X30598Y243460D01*
X30608Y243442D01*
X30705Y243342D01*
X30798Y243239D01*
X30815Y243228D01*
X30829Y243214D01*
X30948Y243141D01*
X31064Y243065D01*
X31083Y243058D01*
X31100Y243047D01*
X31233Y243007D01*
X31365Y242961D01*
X31385Y242960D01*
X31404Y242954D01*
X31543Y242947D01*
X31682Y242936D01*
X31702Y242940D01*
X31722Y242939D01*
X31858Y242967D01*
X31995Y242991D01*
X32014Y242999D01*
X32033Y243003D01*
X32159Y243064D01*
X32285Y243121D01*
X32301Y243134D01*
X32319Y243143D01*
X32425Y243233D01*
X32534Y243320D01*
X32546Y243336D01*
X32561Y243349D01*
X32641Y243463D01*
X32725Y243574D01*
X32737Y243599D01*
X32744Y243609D01*
X32751Y243628D01*
X32796Y243718D01*
X32887Y243940D01*
X35460Y246513D01*
X38821Y247905D01*
X55667Y247905D01*
X59028Y246513D01*
X61601Y243940D01*
X62993Y240579D01*
X62993Y236941D01*
X61601Y233580D01*
X59028Y231007D01*
X55667Y229615D01*
X38821Y229615D01*
X35460Y231007D01*
X32887Y233580D01*
X32796Y233802D01*
X32727Y233922D01*
X32662Y234045D01*
X32648Y234060D01*
X32638Y234078D01*
X32542Y234178D01*
X32448Y234281D01*
X32431Y234292D01*
X32417Y234306D01*
X32299Y234379D01*
X32182Y234455D01*
X32163Y234462D01*
X32146Y234473D01*
X32013Y234513D01*
X31881Y234559D01*
X31861Y234560D01*
X31842Y234566D01*
X31703Y234573D01*
X31564Y234584D01*
X31544Y234580D01*
X31524Y234581D01*
X31388Y234553D01*
X31251Y234529D01*
X31232Y234521D01*
X31213Y234517D01*
X31088Y234456D01*
X30961Y234399D01*
X30945Y234386D01*
X30927Y234377D01*
X30821Y234287D01*
X30713Y234200D01*
X30700Y234184D01*
X30685Y234171D01*
X30605Y234057D01*
X30521Y233946D01*
X30509Y233921D01*
X30502Y233911D01*
X30495Y233892D01*
X30450Y233802D01*
X30359Y233580D01*
X27786Y231007D01*
X24425Y229615D01*
X15240Y229615D01*
X15122Y229600D01*
X15003Y229593D01*
X14965Y229580D01*
X14924Y229575D01*
X14814Y229532D01*
X14701Y229495D01*
X14666Y229473D01*
X14629Y229458D01*
X14533Y229389D01*
X14432Y229325D01*
X14404Y229295D01*
X14371Y229272D01*
X14295Y229180D01*
X14214Y229093D01*
X14194Y229058D01*
X14169Y229027D01*
X14118Y228919D01*
X14060Y228815D01*
X14050Y228775D01*
X14033Y228739D01*
X14011Y228622D01*
X13981Y228507D01*
X13977Y228447D01*
X13973Y228427D01*
X13975Y228406D01*
X13971Y228346D01*
X13971Y223774D01*
X13986Y223656D01*
X13993Y223537D01*
X14006Y223499D01*
X14011Y223458D01*
X14054Y223348D01*
X14091Y223235D01*
X14113Y223200D01*
X14128Y223163D01*
X14197Y223067D01*
X14261Y222966D01*
X14291Y222938D01*
X14314Y222905D01*
X14406Y222829D01*
X14493Y222748D01*
X14528Y222728D01*
X14559Y222703D01*
X14667Y222652D01*
X14771Y222594D01*
X14811Y222584D01*
X14847Y222567D01*
X14964Y222545D01*
X15079Y222515D01*
X15139Y222511D01*
X15159Y222507D01*
X15180Y222509D01*
X15240Y222505D01*
X24425Y222505D01*
X27786Y221113D01*
X30359Y218540D01*
X30450Y218318D01*
X30519Y218198D01*
X30584Y218075D01*
X30598Y218060D01*
X30608Y218042D01*
X30705Y217942D01*
X30798Y217839D01*
X30815Y217828D01*
X30829Y217814D01*
X30948Y217741D01*
X31064Y217665D01*
X31083Y217658D01*
X31100Y217647D01*
X31233Y217607D01*
X31365Y217561D01*
X31385Y217560D01*
X31404Y217554D01*
X31543Y217547D01*
X31682Y217536D01*
X31702Y217540D01*
X31722Y217539D01*
X31858Y217567D01*
X31995Y217591D01*
X32014Y217599D01*
X32033Y217603D01*
X32159Y217664D01*
X32285Y217721D01*
X32301Y217734D01*
X32319Y217743D01*
X32425Y217833D01*
X32534Y217920D01*
X32546Y217936D01*
X32561Y217949D01*
X32641Y218063D01*
X32725Y218174D01*
X32737Y218199D01*
X32744Y218209D01*
X32751Y218228D01*
X32796Y218318D01*
X32887Y218540D01*
X35460Y221113D01*
X38821Y222505D01*
X55667Y222505D01*
X59028Y221113D01*
X61601Y218540D01*
X62993Y215179D01*
X62993Y211541D01*
X61601Y208180D01*
X59028Y205607D01*
X55667Y204215D01*
X38821Y204215D01*
X35460Y205607D01*
X32887Y208180D01*
X32796Y208402D01*
X32727Y208522D01*
X32662Y208645D01*
X32648Y208660D01*
X32638Y208678D01*
X32542Y208778D01*
X32448Y208881D01*
X32431Y208892D01*
X32417Y208906D01*
X32299Y208979D01*
X32182Y209055D01*
X32163Y209062D01*
X32146Y209073D01*
X32013Y209113D01*
X31881Y209159D01*
X31861Y209160D01*
X31842Y209166D01*
X31703Y209173D01*
X31564Y209184D01*
X31544Y209180D01*
X31524Y209181D01*
X31388Y209153D01*
X31251Y209129D01*
X31232Y209121D01*
X31213Y209117D01*
X31088Y209056D01*
X30961Y208999D01*
X30945Y208986D01*
X30927Y208977D01*
X30821Y208887D01*
X30713Y208800D01*
X30700Y208784D01*
X30685Y208771D01*
X30605Y208657D01*
X30521Y208546D01*
X30509Y208521D01*
X30502Y208511D01*
X30495Y208492D01*
X30450Y208402D01*
X30359Y208180D01*
X27786Y205607D01*
X24425Y204215D01*
X15240Y204215D01*
X15122Y204200D01*
X15003Y204193D01*
X14965Y204180D01*
X14924Y204175D01*
X14814Y204132D01*
X14701Y204095D01*
X14666Y204073D01*
X14629Y204058D01*
X14533Y203989D01*
X14432Y203925D01*
X14404Y203895D01*
X14371Y203872D01*
X14295Y203780D01*
X14214Y203693D01*
X14194Y203658D01*
X14169Y203627D01*
X14118Y203519D01*
X14060Y203415D01*
X14050Y203375D01*
X14033Y203339D01*
X14011Y203222D01*
X13981Y203107D01*
X13977Y203047D01*
X13973Y203027D01*
X13975Y203006D01*
X13971Y202946D01*
X13971Y198374D01*
X13986Y198256D01*
X13993Y198137D01*
X14006Y198099D01*
X14011Y198058D01*
X14054Y197948D01*
X14091Y197835D01*
X14113Y197800D01*
X14128Y197763D01*
X14197Y197667D01*
X14261Y197566D01*
X14291Y197538D01*
X14314Y197505D01*
X14406Y197429D01*
X14493Y197348D01*
X14528Y197328D01*
X14559Y197303D01*
X14667Y197252D01*
X14771Y197194D01*
X14811Y197184D01*
X14847Y197167D01*
X14964Y197145D01*
X15079Y197115D01*
X15139Y197111D01*
X15159Y197107D01*
X15180Y197109D01*
X15240Y197105D01*
X24425Y197105D01*
X27786Y195713D01*
X30359Y193140D01*
X30450Y192918D01*
X30519Y192798D01*
X30584Y192675D01*
X30598Y192660D01*
X30608Y192642D01*
X30705Y192542D01*
X30798Y192439D01*
X30815Y192428D01*
X30829Y192414D01*
X30948Y192341D01*
X31064Y192265D01*
X31083Y192258D01*
X31100Y192247D01*
X31233Y192207D01*
X31365Y192161D01*
X31385Y192160D01*
X31404Y192154D01*
X31543Y192147D01*
X31682Y192136D01*
X31702Y192140D01*
X31722Y192139D01*
X31858Y192167D01*
X31995Y192191D01*
X32014Y192199D01*
X32033Y192203D01*
X32159Y192264D01*
X32285Y192321D01*
X32301Y192334D01*
X32319Y192343D01*
X32425Y192433D01*
X32534Y192520D01*
X32546Y192536D01*
X32561Y192549D01*
X32641Y192663D01*
X32725Y192774D01*
X32737Y192799D01*
X32744Y192809D01*
X32751Y192828D01*
X32796Y192918D01*
X32887Y193140D01*
X35460Y195713D01*
X38821Y197105D01*
X55667Y197105D01*
X59028Y195713D01*
X61601Y193140D01*
X62993Y189779D01*
X62993Y186141D01*
X61601Y182780D01*
X59028Y180207D01*
X55667Y178815D01*
X38821Y178815D01*
X35460Y180207D01*
X32887Y182780D01*
X32796Y183002D01*
X32727Y183122D01*
X32662Y183245D01*
X32648Y183260D01*
X32638Y183278D01*
X32542Y183378D01*
X32448Y183481D01*
X32431Y183492D01*
X32417Y183506D01*
X32299Y183579D01*
X32182Y183655D01*
X32163Y183662D01*
X32146Y183673D01*
X32013Y183713D01*
X31881Y183759D01*
X31861Y183760D01*
X31842Y183766D01*
X31703Y183773D01*
X31564Y183784D01*
X31544Y183780D01*
X31524Y183781D01*
X31388Y183753D01*
X31251Y183729D01*
X31232Y183721D01*
X31213Y183717D01*
X31088Y183656D01*
X30961Y183599D01*
X30945Y183586D01*
X30927Y183577D01*
X30821Y183487D01*
X30713Y183400D01*
X30700Y183384D01*
X30685Y183371D01*
X30605Y183257D01*
X30521Y183146D01*
X30509Y183121D01*
X30502Y183111D01*
X30495Y183092D01*
X30450Y183002D01*
X30359Y182780D01*
X27786Y180207D01*
X24425Y178815D01*
X15240Y178815D01*
X15122Y178800D01*
X15003Y178793D01*
X14965Y178780D01*
X14924Y178775D01*
X14814Y178732D01*
X14701Y178695D01*
X14666Y178673D01*
X14629Y178658D01*
X14533Y178589D01*
X14432Y178525D01*
X14404Y178495D01*
X14371Y178472D01*
X14295Y178380D01*
X14214Y178293D01*
X14194Y178258D01*
X14169Y178227D01*
X14118Y178119D01*
X14060Y178015D01*
X14050Y177975D01*
X14033Y177939D01*
X14011Y177822D01*
X13981Y177707D01*
X13977Y177647D01*
X13973Y177627D01*
X13975Y177606D01*
X13971Y177546D01*
X13971Y172974D01*
X13986Y172856D01*
X13993Y172737D01*
X14006Y172699D01*
X14011Y172658D01*
X14054Y172548D01*
X14091Y172435D01*
X14113Y172400D01*
X14128Y172363D01*
X14197Y172267D01*
X14261Y172166D01*
X14291Y172138D01*
X14314Y172105D01*
X14406Y172029D01*
X14493Y171948D01*
X14528Y171928D01*
X14559Y171903D01*
X14667Y171852D01*
X14771Y171794D01*
X14811Y171784D01*
X14847Y171767D01*
X14964Y171745D01*
X15079Y171715D01*
X15139Y171711D01*
X15159Y171707D01*
X15180Y171709D01*
X15240Y171705D01*
X24425Y171705D01*
X27786Y170313D01*
X30359Y167740D01*
X30450Y167518D01*
X30519Y167398D01*
X30584Y167275D01*
X30598Y167260D01*
X30608Y167242D01*
X30705Y167142D01*
X30798Y167039D01*
X30815Y167028D01*
X30829Y167014D01*
X30948Y166941D01*
X31064Y166865D01*
X31083Y166858D01*
X31100Y166847D01*
X31233Y166807D01*
X31365Y166761D01*
X31385Y166760D01*
X31404Y166754D01*
X31543Y166747D01*
X31682Y166736D01*
X31702Y166740D01*
X31722Y166739D01*
X31858Y166767D01*
X31995Y166791D01*
X32014Y166799D01*
X32033Y166803D01*
X32159Y166864D01*
X32285Y166921D01*
X32301Y166934D01*
X32319Y166943D01*
X32425Y167033D01*
X32534Y167120D01*
X32546Y167136D01*
X32561Y167149D01*
X32641Y167263D01*
X32725Y167374D01*
X32737Y167399D01*
X32744Y167409D01*
X32751Y167428D01*
X32796Y167518D01*
X32887Y167740D01*
X35460Y170313D01*
X38821Y171705D01*
X55667Y171705D01*
X59028Y170313D01*
X61601Y167740D01*
X62993Y164379D01*
X62993Y160741D01*
X61601Y157380D01*
X59028Y154807D01*
X55667Y153415D01*
X38821Y153415D01*
X35460Y154807D01*
X32887Y157380D01*
X32796Y157602D01*
X32727Y157722D01*
X32662Y157845D01*
X32648Y157860D01*
X32638Y157878D01*
X32542Y157978D01*
X32448Y158081D01*
X32431Y158092D01*
X32417Y158106D01*
X32299Y158179D01*
X32182Y158255D01*
X32163Y158262D01*
X32146Y158273D01*
X32013Y158313D01*
X31881Y158359D01*
X31861Y158360D01*
X31842Y158366D01*
X31703Y158373D01*
X31564Y158384D01*
X31544Y158380D01*
X31524Y158381D01*
X31388Y158353D01*
X31251Y158329D01*
X31232Y158321D01*
X31213Y158317D01*
X31088Y158256D01*
X30961Y158199D01*
X30945Y158186D01*
X30927Y158177D01*
X30821Y158087D01*
X30713Y158000D01*
X30700Y157984D01*
X30685Y157971D01*
X30605Y157857D01*
X30521Y157746D01*
X30509Y157721D01*
X30502Y157711D01*
X30495Y157692D01*
X30450Y157602D01*
X30359Y157380D01*
X27786Y154807D01*
X24425Y153415D01*
X15240Y153415D01*
X15122Y153400D01*
X15003Y153393D01*
X14965Y153380D01*
X14924Y153375D01*
X14814Y153332D01*
X14701Y153295D01*
X14666Y153273D01*
X14629Y153258D01*
X14533Y153189D01*
X14432Y153125D01*
X14404Y153095D01*
X14371Y153072D01*
X14295Y152980D01*
X14214Y152893D01*
X14194Y152858D01*
X14169Y152827D01*
X14118Y152719D01*
X14060Y152615D01*
X14050Y152575D01*
X14033Y152539D01*
X14011Y152422D01*
X13981Y152307D01*
X13977Y152247D01*
X13973Y152227D01*
X13975Y152206D01*
X13971Y152146D01*
X13971Y147574D01*
X13986Y147456D01*
X13993Y147337D01*
X14006Y147299D01*
X14011Y147258D01*
X14054Y147148D01*
X14091Y147035D01*
X14113Y147000D01*
X14128Y146963D01*
X14197Y146867D01*
X14261Y146766D01*
X14291Y146738D01*
X14314Y146705D01*
X14406Y146629D01*
X14493Y146548D01*
X14528Y146528D01*
X14559Y146503D01*
X14667Y146452D01*
X14771Y146394D01*
X14811Y146384D01*
X14847Y146367D01*
X14964Y146345D01*
X15079Y146315D01*
X15139Y146311D01*
X15159Y146307D01*
X15180Y146309D01*
X15240Y146305D01*
X24425Y146305D01*
X27786Y144913D01*
X30359Y142340D01*
X30450Y142118D01*
X30519Y141998D01*
X30584Y141875D01*
X30598Y141860D01*
X30608Y141842D01*
X30705Y141742D01*
X30798Y141639D01*
X30815Y141628D01*
X30829Y141614D01*
X30948Y141541D01*
X31064Y141465D01*
X31083Y141458D01*
X31100Y141447D01*
X31233Y141407D01*
X31365Y141361D01*
X31385Y141360D01*
X31404Y141354D01*
X31543Y141347D01*
X31682Y141336D01*
X31702Y141340D01*
X31722Y141339D01*
X31858Y141367D01*
X31995Y141391D01*
X32014Y141399D01*
X32033Y141403D01*
X32159Y141464D01*
X32285Y141521D01*
X32301Y141534D01*
X32319Y141543D01*
X32425Y141633D01*
X32534Y141720D01*
X32546Y141736D01*
X32561Y141749D01*
X32641Y141863D01*
X32725Y141974D01*
X32737Y141999D01*
X32744Y142009D01*
X32751Y142028D01*
X32796Y142118D01*
X32887Y142340D01*
X35460Y144913D01*
X38821Y146305D01*
X55667Y146305D01*
X59028Y144913D01*
X61601Y142340D01*
X62993Y138979D01*
X62993Y135341D01*
X61601Y131980D01*
X59028Y129407D01*
X55667Y128015D01*
X38821Y128015D01*
X35460Y129407D01*
X32887Y131980D01*
X32796Y132202D01*
X32727Y132322D01*
X32662Y132445D01*
X32648Y132460D01*
X32638Y132478D01*
X32542Y132578D01*
X32448Y132681D01*
X32431Y132692D01*
X32417Y132706D01*
X32299Y132779D01*
X32182Y132855D01*
X32163Y132862D01*
X32146Y132873D01*
X32013Y132913D01*
X31881Y132959D01*
X31861Y132960D01*
X31842Y132966D01*
X31703Y132973D01*
X31564Y132984D01*
X31544Y132980D01*
X31524Y132981D01*
X31388Y132953D01*
X31251Y132929D01*
X31232Y132921D01*
X31213Y132917D01*
X31088Y132856D01*
X30961Y132799D01*
X30945Y132786D01*
X30927Y132777D01*
X30821Y132687D01*
X30713Y132600D01*
X30700Y132584D01*
X30685Y132571D01*
X30605Y132457D01*
X30521Y132346D01*
X30509Y132321D01*
X30502Y132311D01*
X30495Y132292D01*
X30450Y132202D01*
X30359Y131980D01*
X27786Y129407D01*
X24425Y128015D01*
X15240Y128015D01*
X15122Y128000D01*
X15003Y127993D01*
X14965Y127980D01*
X14924Y127975D01*
X14814Y127932D01*
X14701Y127895D01*
X14666Y127873D01*
X14629Y127858D01*
X14533Y127789D01*
X14432Y127725D01*
X14404Y127695D01*
X14371Y127672D01*
X14295Y127580D01*
X14214Y127493D01*
X14194Y127458D01*
X14169Y127427D01*
X14118Y127319D01*
X14060Y127215D01*
X14050Y127175D01*
X14033Y127139D01*
X14011Y127022D01*
X13981Y126907D01*
X13977Y126847D01*
X13973Y126827D01*
X13975Y126806D01*
X13971Y126746D01*
X13971Y122174D01*
X13986Y122056D01*
X13993Y121937D01*
X14006Y121899D01*
X14011Y121858D01*
X14054Y121748D01*
X14091Y121635D01*
X14113Y121600D01*
X14128Y121563D01*
X14197Y121467D01*
X14261Y121366D01*
X14291Y121338D01*
X14314Y121305D01*
X14406Y121229D01*
X14493Y121148D01*
X14528Y121128D01*
X14559Y121103D01*
X14667Y121052D01*
X14771Y120994D01*
X14811Y120984D01*
X14847Y120967D01*
X14964Y120945D01*
X15079Y120915D01*
X15139Y120911D01*
X15159Y120907D01*
X15180Y120909D01*
X15240Y120905D01*
X24425Y120905D01*
X27786Y119513D01*
X30359Y116940D01*
X30450Y116718D01*
X30519Y116598D01*
X30584Y116475D01*
X30598Y116460D01*
X30608Y116442D01*
X30705Y116342D01*
X30798Y116239D01*
X30815Y116228D01*
X30829Y116214D01*
X30948Y116141D01*
X31064Y116065D01*
X31083Y116058D01*
X31100Y116047D01*
X31233Y116007D01*
X31365Y115961D01*
X31385Y115960D01*
X31404Y115954D01*
X31543Y115947D01*
X31682Y115936D01*
X31702Y115940D01*
X31722Y115939D01*
X31858Y115967D01*
X31995Y115991D01*
X32014Y115999D01*
X32033Y116003D01*
X32159Y116064D01*
X32285Y116121D01*
X32301Y116134D01*
X32319Y116143D01*
X32425Y116233D01*
X32534Y116320D01*
X32546Y116336D01*
X32561Y116349D01*
X32641Y116463D01*
X32725Y116574D01*
X32737Y116599D01*
X32744Y116609D01*
X32751Y116628D01*
X32796Y116718D01*
X32887Y116940D01*
X35460Y119513D01*
X38821Y120905D01*
X55667Y120905D01*
X59028Y119513D01*
X61601Y116940D01*
X62993Y113579D01*
X62993Y109941D01*
X61601Y106580D01*
X59028Y104007D01*
X55667Y102615D01*
X38821Y102615D01*
X35460Y104007D01*
X32887Y106580D01*
X32796Y106802D01*
X32727Y106922D01*
X32662Y107045D01*
X32648Y107060D01*
X32638Y107078D01*
X32542Y107178D01*
X32448Y107281D01*
X32431Y107292D01*
X32417Y107306D01*
X32299Y107379D01*
X32182Y107455D01*
X32163Y107462D01*
X32146Y107473D01*
X32013Y107513D01*
X31881Y107559D01*
X31861Y107560D01*
X31842Y107566D01*
X31703Y107573D01*
X31564Y107584D01*
X31544Y107580D01*
X31524Y107581D01*
X31388Y107553D01*
X31251Y107529D01*
X31232Y107521D01*
X31213Y107517D01*
X31088Y107456D01*
X30961Y107399D01*
X30945Y107386D01*
X30927Y107377D01*
X30821Y107287D01*
X30713Y107200D01*
X30700Y107184D01*
X30685Y107171D01*
X30605Y107057D01*
X30521Y106946D01*
X30509Y106921D01*
X30502Y106911D01*
X30495Y106892D01*
X30450Y106802D01*
X30359Y106580D01*
X27786Y104007D01*
X24425Y102615D01*
X15240Y102615D01*
X15122Y102600D01*
X15003Y102593D01*
X14965Y102580D01*
X14924Y102575D01*
X14814Y102532D01*
X14701Y102495D01*
X14666Y102473D01*
X14629Y102458D01*
X14533Y102389D01*
X14432Y102325D01*
X14404Y102295D01*
X14371Y102272D01*
X14295Y102180D01*
X14214Y102093D01*
X14194Y102058D01*
X14169Y102027D01*
X14118Y101919D01*
X14060Y101815D01*
X14050Y101775D01*
X14033Y101739D01*
X14011Y101622D01*
X13981Y101507D01*
X13977Y101447D01*
X13973Y101427D01*
X13975Y101406D01*
X13971Y101346D01*
X13971Y96774D01*
X13986Y96656D01*
X13993Y96537D01*
X14006Y96499D01*
X14011Y96458D01*
X14054Y96348D01*
X14091Y96235D01*
X14113Y96200D01*
X14128Y96163D01*
X14197Y96067D01*
X14261Y95966D01*
X14291Y95938D01*
X14314Y95905D01*
X14406Y95829D01*
X14493Y95748D01*
X14528Y95728D01*
X14559Y95703D01*
X14667Y95652D01*
X14771Y95594D01*
X14811Y95584D01*
X14847Y95567D01*
X14964Y95545D01*
X15079Y95515D01*
X15139Y95511D01*
X15159Y95507D01*
X15180Y95509D01*
X15240Y95505D01*
X24425Y95505D01*
X27786Y94113D01*
X30359Y91540D01*
X30450Y91318D01*
X30519Y91198D01*
X30584Y91075D01*
X30598Y91060D01*
X30608Y91042D01*
X30705Y90942D01*
X30798Y90839D01*
X30815Y90828D01*
X30829Y90814D01*
X30948Y90741D01*
X31064Y90665D01*
X31083Y90658D01*
X31100Y90647D01*
X31233Y90607D01*
X31365Y90561D01*
X31385Y90560D01*
X31404Y90554D01*
X31543Y90547D01*
X31682Y90536D01*
X31702Y90540D01*
X31722Y90539D01*
X31858Y90567D01*
X31995Y90591D01*
X32014Y90599D01*
X32033Y90603D01*
X32159Y90664D01*
X32285Y90721D01*
X32301Y90734D01*
X32319Y90743D01*
X32425Y90833D01*
X32534Y90920D01*
X32546Y90936D01*
X32561Y90949D01*
X32641Y91063D01*
X32725Y91174D01*
X32737Y91199D01*
X32744Y91209D01*
X32751Y91228D01*
X32796Y91318D01*
X32887Y91540D01*
X35460Y94113D01*
X38821Y95505D01*
X55667Y95505D01*
X59028Y94113D01*
X61601Y91540D01*
X62993Y88179D01*
X62993Y84541D01*
X61601Y81180D01*
X59028Y78607D01*
X55667Y77215D01*
X38821Y77215D01*
X35460Y78607D01*
X32887Y81180D01*
X32796Y81402D01*
X32727Y81522D01*
X32662Y81645D01*
X32648Y81660D01*
X32638Y81678D01*
X32542Y81778D01*
X32448Y81881D01*
X32431Y81892D01*
X32417Y81906D01*
X32299Y81979D01*
X32182Y82055D01*
X32163Y82062D01*
X32146Y82073D01*
X32013Y82113D01*
X31881Y82159D01*
X31861Y82160D01*
X31842Y82166D01*
X31703Y82173D01*
X31564Y82184D01*
X31544Y82180D01*
X31524Y82181D01*
X31388Y82153D01*
X31251Y82129D01*
X31232Y82121D01*
X31213Y82117D01*
X31088Y82056D01*
X30961Y81999D01*
X30945Y81986D01*
X30927Y81977D01*
X30821Y81887D01*
X30713Y81800D01*
X30700Y81784D01*
X30685Y81771D01*
X30605Y81657D01*
X30521Y81546D01*
X30509Y81521D01*
X30502Y81511D01*
X30495Y81492D01*
X30450Y81402D01*
X30359Y81180D01*
X27786Y78607D01*
X24425Y77215D01*
X15240Y77215D01*
X15122Y77200D01*
X15003Y77193D01*
X14965Y77180D01*
X14924Y77175D01*
X14814Y77132D01*
X14701Y77095D01*
X14666Y77073D01*
X14629Y77058D01*
X14533Y76989D01*
X14432Y76925D01*
X14404Y76895D01*
X14371Y76872D01*
X14295Y76780D01*
X14214Y76693D01*
X14194Y76658D01*
X14169Y76627D01*
X14118Y76519D01*
X14060Y76415D01*
X14050Y76375D01*
X14033Y76339D01*
X14011Y76222D01*
X13981Y76107D01*
X13977Y76047D01*
X13973Y76027D01*
X13975Y76006D01*
X13971Y75946D01*
X13971Y71374D01*
X13986Y71256D01*
X13993Y71137D01*
X14006Y71099D01*
X14011Y71058D01*
X14054Y70948D01*
X14091Y70835D01*
X14113Y70800D01*
X14128Y70763D01*
X14197Y70667D01*
X14261Y70566D01*
X14291Y70538D01*
X14314Y70505D01*
X14406Y70429D01*
X14493Y70348D01*
X14528Y70328D01*
X14559Y70303D01*
X14667Y70252D01*
X14771Y70194D01*
X14811Y70184D01*
X14847Y70167D01*
X14964Y70145D01*
X15079Y70115D01*
X15139Y70111D01*
X15159Y70107D01*
X15180Y70109D01*
X15240Y70105D01*
X24425Y70105D01*
X27786Y68713D01*
X30359Y66140D01*
X30450Y65918D01*
X30519Y65798D01*
X30584Y65675D01*
X30598Y65660D01*
X30608Y65642D01*
X30705Y65542D01*
X30798Y65439D01*
X30815Y65428D01*
X30829Y65414D01*
X30948Y65341D01*
X31064Y65265D01*
X31083Y65258D01*
X31100Y65247D01*
X31233Y65207D01*
X31365Y65161D01*
X31385Y65160D01*
X31404Y65154D01*
X31543Y65147D01*
X31682Y65136D01*
X31702Y65140D01*
X31722Y65139D01*
X31858Y65167D01*
X31995Y65191D01*
X32014Y65199D01*
X32033Y65203D01*
X32159Y65264D01*
X32285Y65321D01*
X32301Y65334D01*
X32319Y65343D01*
X32425Y65433D01*
X32534Y65520D01*
X32546Y65536D01*
X32561Y65549D01*
X32641Y65663D01*
X32725Y65774D01*
X32737Y65799D01*
X32744Y65809D01*
X32751Y65828D01*
X32796Y65918D01*
X32887Y66140D01*
X35460Y68713D01*
X38821Y70105D01*
X55667Y70105D01*
X59028Y68713D01*
X61601Y66140D01*
X62993Y62779D01*
X62993Y59141D01*
X61601Y55780D01*
X59028Y53207D01*
X55667Y51815D01*
X38821Y51815D01*
X35460Y53207D01*
X32887Y55780D01*
X32796Y56002D01*
X32727Y56122D01*
X32662Y56245D01*
X32648Y56260D01*
X32638Y56278D01*
X32542Y56378D01*
X32448Y56481D01*
X32431Y56492D01*
X32417Y56506D01*
X32299Y56579D01*
X32182Y56655D01*
X32163Y56662D01*
X32146Y56673D01*
X32013Y56713D01*
X31881Y56759D01*
X31861Y56760D01*
X31842Y56766D01*
X31703Y56773D01*
X31564Y56784D01*
X31544Y56780D01*
X31524Y56781D01*
X31388Y56753D01*
X31251Y56729D01*
X31232Y56721D01*
X31213Y56717D01*
X31088Y56656D01*
X30961Y56599D01*
X30945Y56586D01*
X30927Y56577D01*
X30821Y56487D01*
X30713Y56400D01*
X30700Y56384D01*
X30685Y56371D01*
X30605Y56257D01*
X30521Y56146D01*
X30509Y56121D01*
X30502Y56111D01*
X30495Y56092D01*
X30450Y56002D01*
X30359Y55780D01*
X27786Y53207D01*
X24425Y51815D01*
X15240Y51815D01*
X15122Y51800D01*
X15003Y51793D01*
X14965Y51780D01*
X14924Y51775D01*
X14814Y51732D01*
X14701Y51695D01*
X14666Y51673D01*
X14629Y51658D01*
X14533Y51589D01*
X14432Y51525D01*
X14404Y51495D01*
X14371Y51472D01*
X14295Y51380D01*
X14214Y51293D01*
X14194Y51258D01*
X14169Y51227D01*
X14118Y51119D01*
X14060Y51015D01*
X14050Y50975D01*
X14033Y50939D01*
X14011Y50822D01*
X13981Y50707D01*
X13977Y50647D01*
X13973Y50627D01*
X13975Y50606D01*
X13971Y50546D01*
X13971Y45974D01*
X13986Y45856D01*
X13993Y45737D01*
X14006Y45699D01*
X14011Y45658D01*
X14054Y45548D01*
X14091Y45435D01*
X14113Y45400D01*
X14128Y45363D01*
X14197Y45267D01*
X14261Y45166D01*
X14291Y45138D01*
X14314Y45105D01*
X14406Y45029D01*
X14493Y44948D01*
X14528Y44928D01*
X14559Y44903D01*
X14667Y44852D01*
X14771Y44794D01*
X14811Y44784D01*
X14847Y44767D01*
X14964Y44745D01*
X15079Y44715D01*
X15139Y44711D01*
X15159Y44707D01*
X15180Y44709D01*
X15240Y44705D01*
X24425Y44705D01*
X27786Y43313D01*
X30359Y40740D01*
X30450Y40518D01*
X30519Y40398D01*
X30584Y40275D01*
X30598Y40260D01*
X30608Y40242D01*
X30705Y40142D01*
X30798Y40039D01*
X30815Y40028D01*
X30829Y40014D01*
X30948Y39941D01*
X31064Y39865D01*
X31083Y39858D01*
X31100Y39847D01*
X31233Y39807D01*
X31365Y39761D01*
X31385Y39760D01*
X31404Y39754D01*
X31543Y39747D01*
X31682Y39736D01*
X31702Y39740D01*
X31722Y39739D01*
X31858Y39767D01*
X31995Y39791D01*
X32014Y39799D01*
X32033Y39803D01*
X32159Y39864D01*
X32285Y39921D01*
X32301Y39934D01*
X32319Y39943D01*
X32425Y40033D01*
X32534Y40120D01*
X32546Y40136D01*
X32561Y40149D01*
X32641Y40263D01*
X32725Y40374D01*
X32737Y40399D01*
X32744Y40409D01*
X32751Y40428D01*
X32796Y40518D01*
X32887Y40740D01*
X35460Y43313D01*
X38821Y44705D01*
X55667Y44705D01*
X59028Y43313D01*
X61601Y40740D01*
X62993Y37379D01*
X62993Y33741D01*
X61601Y30380D01*
X59028Y27807D01*
X55667Y26415D01*
X38821Y26415D01*
X35460Y27807D01*
X32887Y30380D01*
X32796Y30602D01*
X32727Y30722D01*
X32662Y30845D01*
X32648Y30860D01*
X32638Y30878D01*
X32542Y30978D01*
X32448Y31081D01*
X32431Y31092D01*
X32417Y31106D01*
X32299Y31179D01*
X32182Y31255D01*
X32163Y31262D01*
X32146Y31273D01*
X32013Y31313D01*
X31881Y31359D01*
X31861Y31360D01*
X31842Y31366D01*
X31703Y31373D01*
X31564Y31384D01*
X31544Y31380D01*
X31524Y31381D01*
X31388Y31353D01*
X31251Y31329D01*
X31232Y31321D01*
X31213Y31317D01*
X31088Y31256D01*
X30961Y31199D01*
X30945Y31186D01*
X30927Y31177D01*
X30821Y31087D01*
X30713Y31000D01*
X30700Y30984D01*
X30685Y30971D01*
X30605Y30857D01*
X30521Y30746D01*
X30509Y30721D01*
X30502Y30711D01*
X30495Y30692D01*
X30450Y30602D01*
X30359Y30380D01*
X27786Y27807D01*
X24425Y26415D01*
X15240Y26415D01*
X15122Y26400D01*
X15003Y26393D01*
X14965Y26380D01*
X14924Y26375D01*
X14814Y26332D01*
X14701Y26295D01*
X14666Y26273D01*
X14629Y26258D01*
X14533Y26189D01*
X14432Y26125D01*
X14404Y26095D01*
X14371Y26072D01*
X14295Y25980D01*
X14214Y25893D01*
X14194Y25858D01*
X14169Y25827D01*
X14118Y25719D01*
X14060Y25615D01*
X14050Y25575D01*
X14033Y25539D01*
X14011Y25422D01*
X13981Y25307D01*
X13977Y25247D01*
X13973Y25227D01*
X13975Y25206D01*
X13971Y25146D01*
X13971Y15240D01*
X13986Y15122D01*
X13993Y15003D01*
X14006Y14965D01*
X14011Y14924D01*
X14054Y14814D01*
X14091Y14701D01*
X14113Y14666D01*
X14128Y14629D01*
X14197Y14533D01*
X14261Y14432D01*
X14291Y14404D01*
X14314Y14371D01*
X14406Y14295D01*
X14493Y14214D01*
X14528Y14194D01*
X14559Y14169D01*
X14667Y14118D01*
X14771Y14060D01*
X14811Y14050D01*
X14847Y14033D01*
X14964Y14011D01*
X15079Y13981D01*
X15139Y13977D01*
X15159Y13973D01*
X15180Y13975D01*
X15240Y13971D01*
X16764Y13971D01*
X16882Y13986D01*
G37*
%LPC*%
G36*
X70611Y317501D02*
X70611Y317501D01*
X77979Y317501D01*
X77979Y311914D01*
X77741Y310414D01*
X77272Y308969D01*
X76582Y307615D01*
X75689Y306386D01*
X74614Y305311D01*
X73385Y304418D01*
X72031Y303728D01*
X70611Y303267D01*
X70611Y317501D01*
G37*
%LPD*%
%LPC*%
G36*
X64621Y303728D02*
X64621Y303728D01*
X63267Y304418D01*
X62038Y305311D01*
X60963Y306386D01*
X60070Y307615D01*
X59380Y308969D01*
X58911Y310414D01*
X58673Y311914D01*
X58673Y317501D01*
X66041Y317501D01*
X66041Y303267D01*
X64621Y303728D01*
G37*
%LPD*%
D10*
X161290Y316232D02*
X163832Y313690D01*
X166374Y313690D01*
X168917Y316232D01*
X168917Y328943D01*
X171459Y328943D02*
X166374Y328943D01*
X177662Y328943D02*
X177662Y313690D01*
X177662Y328943D02*
X185288Y328943D01*
X187830Y326401D01*
X187830Y321317D01*
X185288Y318774D01*
X177662Y318774D01*
X194033Y323859D02*
X199117Y328943D01*
X199117Y313690D01*
X194033Y313690D02*
X204202Y313690D01*
X11432Y313690D02*
X8890Y316232D01*
X11432Y313690D02*
X13974Y313690D01*
X16517Y316232D01*
X16517Y328943D01*
X19059Y328943D02*
X13974Y328943D01*
X25262Y328943D02*
X25262Y313690D01*
X25262Y328943D02*
X32888Y328943D01*
X35430Y326401D01*
X35430Y321317D01*
X32888Y318774D01*
X25262Y318774D01*
X41633Y313690D02*
X51802Y313690D01*
X41633Y313690D02*
X51802Y323859D01*
X51802Y326401D01*
X49260Y328943D01*
X44175Y328943D01*
X41633Y326401D01*
D11*
X22606Y289560D02*
X9398Y289560D01*
X9398Y264160D02*
X22606Y264160D01*
X22606Y137160D02*
X9398Y137160D01*
X9398Y111760D02*
X22606Y111760D01*
X22606Y238760D02*
X9398Y238760D01*
X9398Y213360D02*
X22606Y213360D01*
X22606Y162560D02*
X9398Y162560D01*
X9398Y187960D02*
X22606Y187960D01*
X22606Y86360D02*
X9398Y86360D01*
X9398Y60960D02*
X22606Y60960D01*
X22606Y35560D02*
X9398Y35560D01*
X9398Y10160D02*
X22606Y10160D01*
X161798Y10160D02*
X175006Y10160D01*
X175006Y35560D02*
X161798Y35560D01*
X161798Y60960D02*
X175006Y60960D01*
X175006Y86360D02*
X161798Y86360D01*
X161798Y111760D02*
X175006Y111760D01*
X175006Y137160D02*
X161798Y137160D01*
X161798Y162560D02*
X175006Y162560D01*
X175006Y187960D02*
X161798Y187960D01*
X161798Y213360D02*
X175006Y213360D01*
X175006Y238760D02*
X161798Y238760D01*
X161798Y264160D02*
X175006Y264160D01*
X175006Y289560D02*
X161798Y289560D01*
X53848Y289560D02*
X40640Y289560D01*
X40640Y264160D02*
X53848Y264160D01*
X53848Y137160D02*
X40640Y137160D01*
X40640Y111760D02*
X53848Y111760D01*
X53848Y238760D02*
X40640Y238760D01*
X40640Y213360D02*
X53848Y213360D01*
X53848Y162560D02*
X40640Y162560D01*
X40640Y187960D02*
X53848Y187960D01*
X53848Y86360D02*
X40640Y86360D01*
X40640Y60960D02*
X53848Y60960D01*
X53848Y35560D02*
X40640Y35560D01*
X40640Y10160D02*
X53848Y10160D01*
X193040Y10160D02*
X206248Y10160D01*
X206248Y35560D02*
X193040Y35560D01*
X193040Y60960D02*
X206248Y60960D01*
X206248Y86360D02*
X193040Y86360D01*
X193040Y111760D02*
X206248Y111760D01*
X206248Y137160D02*
X193040Y137160D01*
X193040Y162560D02*
X206248Y162560D01*
X206248Y187960D02*
X193040Y187960D01*
X193040Y213360D02*
X206248Y213360D01*
X206248Y238760D02*
X193040Y238760D01*
X193040Y264160D02*
X206248Y264160D01*
X206248Y289560D02*
X193040Y289560D01*
D12*
X119380Y312928D02*
X119380Y327152D01*
X144780Y327152D02*
X144780Y312928D01*
X68326Y312674D02*
X68326Y326898D01*
X93726Y326898D02*
X93726Y312674D01*
D10*
X180340Y149860D02*
X193040Y137160D01*
X142240Y187960D02*
X142240Y314960D01*
X154940Y149860D02*
X180340Y149860D01*
X154940Y149860D02*
X154633Y149864D01*
X154326Y149875D01*
X154020Y149893D01*
X153714Y149919D01*
X153409Y149953D01*
X153105Y149993D01*
X152802Y150041D01*
X152500Y150097D01*
X152200Y150159D01*
X151901Y150229D01*
X151604Y150306D01*
X151308Y150390D01*
X151015Y150482D01*
X150725Y150580D01*
X150437Y150685D01*
X150151Y150798D01*
X149868Y150917D01*
X149588Y151043D01*
X149311Y151175D01*
X149038Y151315D01*
X148768Y151461D01*
X148502Y151613D01*
X148239Y151772D01*
X147980Y151937D01*
X147726Y152108D01*
X147475Y152285D01*
X147229Y152469D01*
X146987Y152658D01*
X146751Y152853D01*
X146518Y153054D01*
X146291Y153260D01*
X146069Y153472D01*
X145852Y153689D01*
X145640Y153911D01*
X145434Y154138D01*
X145233Y154371D01*
X145038Y154607D01*
X144849Y154849D01*
X144665Y155095D01*
X144488Y155346D01*
X144317Y155600D01*
X144152Y155859D01*
X143993Y156122D01*
X143841Y156388D01*
X143695Y156658D01*
X143555Y156931D01*
X143423Y157208D01*
X143297Y157488D01*
X143178Y157771D01*
X143065Y158057D01*
X142960Y158345D01*
X142862Y158635D01*
X142770Y158928D01*
X142686Y159224D01*
X142609Y159521D01*
X142539Y159820D01*
X142477Y160120D01*
X142421Y160422D01*
X142373Y160725D01*
X142333Y161029D01*
X142299Y161334D01*
X142273Y161640D01*
X142255Y161946D01*
X142244Y162253D01*
X142240Y162560D01*
X142240Y187960D01*
X193040Y137160D02*
X199644Y137160D01*
X142240Y314960D02*
X144780Y320040D01*
X142240Y187960D02*
X168402Y187960D01*
X180340Y200660D02*
X193040Y187960D01*
X199644Y187960D01*
X180340Y200660D02*
X168402Y213360D01*
M02*
