G04 EAGLE Gerber RS-274X export*
G75*
%MOMM*%
%FSLAX34Y34*%
%LPD*%
%INSilkscreen Top*%
%IPPOS*%
%AMOC8*
5,1,8,0,0,1.08239X$1,22.5*%
G01*
%ADD10C,0.177800*%
%ADD11C,0.152400*%
%ADD12C,0.254000*%
%ADD13R,0.609600X0.609600*%
%ADD14C,0.127000*%
%ADD15R,1.905000X1.016000*%
%ADD16R,0.381000X1.778000*%
%ADD17R,0.254000X1.270000*%
%ADD18R,0.254000X0.762000*%
%ADD19R,0.254000X0.254000*%
%ADD20R,0.127000X0.254000*%
%ADD21R,0.127000X0.127000*%


D10*
X77851Y61517D02*
X77851Y54229D01*
X70563Y61517D01*
X68742Y61517D01*
X66920Y59695D01*
X66920Y56051D01*
X68742Y54229D01*
X66920Y65923D02*
X66920Y73211D01*
X66920Y65923D02*
X72385Y65923D01*
X70563Y69567D01*
X70563Y71389D01*
X72385Y73211D01*
X76029Y73211D01*
X77851Y71389D01*
X77851Y67745D01*
X76029Y65923D01*
X68742Y77617D02*
X66920Y79439D01*
X66920Y83083D01*
X68742Y84904D01*
X70563Y84904D01*
X72385Y83083D01*
X72385Y81261D01*
X72385Y83083D02*
X74207Y84904D01*
X76029Y84904D01*
X77851Y83083D01*
X77851Y79439D01*
X76029Y77617D01*
X77851Y89311D02*
X77851Y96598D01*
X77851Y89311D02*
X70563Y96598D01*
X68742Y96598D01*
X66920Y94777D01*
X66920Y91133D01*
X68742Y89311D01*
X72385Y101005D02*
X66920Y108292D01*
X72385Y101005D02*
X77851Y108292D01*
X66920Y112699D02*
X72385Y119986D01*
X77851Y112699D01*
X77851Y124393D02*
X77851Y131680D01*
X77851Y124393D02*
X70563Y131680D01*
X68742Y131680D01*
X66920Y129858D01*
X66920Y126215D01*
X68742Y124393D01*
X66920Y136087D02*
X66920Y143374D01*
X68742Y143374D01*
X76029Y136087D01*
X77851Y136087D01*
X68742Y147781D02*
X66920Y149603D01*
X66920Y153246D01*
X68742Y155068D01*
X70563Y155068D01*
X72385Y153246D01*
X72385Y151425D01*
X72385Y153246D02*
X74207Y155068D01*
X76029Y155068D01*
X77851Y153246D01*
X77851Y149603D01*
X76029Y147781D01*
X77851Y159475D02*
X77851Y166762D01*
X77851Y159475D02*
X70563Y166762D01*
X68742Y166762D01*
X66920Y164940D01*
X66920Y161297D01*
X68742Y159475D01*
X66920Y182863D02*
X66920Y190150D01*
X66920Y182863D02*
X77851Y182863D01*
X77851Y190150D01*
X72385Y186506D02*
X72385Y182863D01*
X66920Y194557D02*
X77851Y194557D01*
X66920Y194557D02*
X66920Y200022D01*
X68742Y201844D01*
X72385Y201844D01*
X74207Y200022D01*
X74207Y194557D01*
X77851Y206251D02*
X66920Y206251D01*
X66920Y211716D01*
X68742Y213538D01*
X72385Y213538D01*
X74207Y211716D01*
X74207Y206251D01*
X74207Y209894D02*
X77851Y213538D01*
X66920Y219766D02*
X66920Y223410D01*
X66920Y219766D02*
X68742Y217945D01*
X76029Y217945D01*
X77851Y219766D01*
X77851Y223410D01*
X76029Y225232D01*
X68742Y225232D01*
X66920Y223410D01*
X66920Y229639D02*
X77851Y229639D01*
X70563Y233282D02*
X66920Y229639D01*
X70563Y233282D02*
X66920Y236926D01*
X77851Y236926D01*
X83982Y61517D02*
X82160Y59695D01*
X82160Y56051D01*
X83982Y54229D01*
X85803Y54229D01*
X87625Y56051D01*
X87625Y59695D01*
X89447Y61517D01*
X91269Y61517D01*
X93091Y59695D01*
X93091Y56051D01*
X91269Y54229D01*
X93091Y67745D02*
X93091Y71389D01*
X91269Y73211D01*
X87625Y73211D01*
X85803Y71389D01*
X85803Y67745D01*
X87625Y65923D01*
X91269Y65923D01*
X93091Y67745D01*
X85803Y79439D02*
X85803Y84904D01*
X85803Y79439D02*
X87625Y77617D01*
X91269Y77617D01*
X93091Y79439D01*
X93091Y84904D01*
X93091Y89311D02*
X82160Y89311D01*
X89447Y89311D02*
X93091Y94777D01*
X89447Y89311D02*
X85803Y94777D01*
X93091Y100878D02*
X93091Y104522D01*
X93091Y100878D02*
X91269Y99056D01*
X87625Y99056D01*
X85803Y100878D01*
X85803Y104522D01*
X87625Y106343D01*
X89447Y106343D01*
X89447Y99056D01*
X91269Y112572D02*
X83982Y112572D01*
X91269Y112572D02*
X93091Y114394D01*
X85803Y114394D02*
X85803Y110750D01*
X82160Y135705D02*
X83982Y137527D01*
X82160Y135705D02*
X82160Y132062D01*
X83982Y130240D01*
X91269Y130240D01*
X93091Y132062D01*
X93091Y135705D01*
X91269Y137527D01*
X93091Y143756D02*
X93091Y147399D01*
X91269Y149221D01*
X87625Y149221D01*
X85803Y147399D01*
X85803Y143756D01*
X87625Y141934D01*
X91269Y141934D01*
X93091Y143756D01*
X93091Y153628D02*
X85803Y153628D01*
X85803Y159093D01*
X87625Y160915D01*
X93091Y160915D01*
X93091Y168965D02*
X85803Y165322D01*
X85803Y172609D02*
X93091Y168965D01*
X93091Y178838D02*
X93091Y182481D01*
X93091Y178838D02*
X91269Y177016D01*
X87625Y177016D01*
X85803Y178838D01*
X85803Y182481D01*
X87625Y184303D01*
X89447Y184303D01*
X89447Y177016D01*
X93091Y188710D02*
X85803Y188710D01*
X85803Y192353D02*
X89447Y188710D01*
X85803Y192353D02*
X85803Y194175D01*
X83982Y200276D02*
X91269Y200276D01*
X93091Y202098D01*
X85803Y202098D02*
X85803Y198455D01*
X93091Y208072D02*
X93091Y211716D01*
X93091Y208072D02*
X91269Y206251D01*
X87625Y206251D01*
X85803Y208072D01*
X85803Y211716D01*
X87625Y213538D01*
X89447Y213538D01*
X89447Y206251D01*
X93091Y217945D02*
X85803Y217945D01*
X85803Y221588D02*
X89447Y217945D01*
X85803Y221588D02*
X85803Y223410D01*
X99222Y61517D02*
X97400Y59695D01*
X97400Y56051D01*
X99222Y54229D01*
X106509Y54229D01*
X108331Y56051D01*
X108331Y59695D01*
X106509Y61517D01*
X102865Y61517D01*
X102865Y57873D01*
X97400Y71389D02*
X99222Y73211D01*
X97400Y71389D02*
X97400Y67745D01*
X99222Y65923D01*
X106509Y65923D01*
X108331Y67745D01*
X108331Y71389D01*
X106509Y73211D01*
X97400Y83083D02*
X99222Y84904D01*
X97400Y83083D02*
X97400Y79439D01*
X99222Y77617D01*
X106509Y77617D01*
X108331Y79439D01*
X108331Y83083D01*
X106509Y84904D01*
X102865Y89311D02*
X102865Y96598D01*
X99222Y101005D02*
X106509Y101005D01*
X99222Y101005D02*
X97400Y102827D01*
X97400Y106471D01*
X99222Y108292D01*
X106509Y108292D01*
X108331Y106471D01*
X108331Y102827D01*
X106509Y101005D01*
X99222Y108292D01*
X99222Y112699D02*
X106509Y112699D01*
X99222Y112699D02*
X97400Y114521D01*
X97400Y118165D01*
X99222Y119986D01*
X106509Y119986D01*
X108331Y118165D01*
X108331Y114521D01*
X106509Y112699D01*
X99222Y119986D01*
X99222Y124393D02*
X106509Y124393D01*
X99222Y124393D02*
X97400Y126215D01*
X97400Y129858D01*
X99222Y131680D01*
X106509Y131680D01*
X108331Y129858D01*
X108331Y126215D01*
X106509Y124393D01*
X99222Y131680D01*
X101043Y136087D02*
X97400Y139731D01*
X108331Y139731D01*
X108331Y143374D02*
X108331Y136087D01*
X108331Y147781D02*
X106509Y147781D01*
X106509Y149603D01*
X108331Y149603D01*
X108331Y147781D01*
X108331Y153628D02*
X108331Y160915D01*
X108331Y153628D02*
X101043Y160915D01*
X99222Y160915D01*
X97400Y159093D01*
X97400Y155450D01*
X99222Y153628D01*
X104687Y177016D02*
X108331Y180659D01*
X104687Y177016D02*
X101043Y177016D01*
X97400Y180659D01*
X101043Y184812D02*
X108331Y188455D01*
X101043Y192099D01*
X101043Y196506D02*
X97400Y200149D01*
X108331Y200149D01*
X108331Y196506D02*
X108331Y203793D01*
X108331Y208200D02*
X106509Y208200D01*
X106509Y210021D01*
X108331Y210021D01*
X108331Y208200D01*
X108331Y214047D02*
X108331Y221334D01*
X108331Y214047D02*
X101043Y221334D01*
X99222Y221334D01*
X97400Y219512D01*
X97400Y215868D01*
X99222Y214047D01*
X108331Y225741D02*
X104687Y229384D01*
X101043Y229384D01*
X97400Y225741D01*
X123571Y70573D02*
X119927Y66929D01*
X116283Y66929D01*
X112640Y70573D01*
X112640Y80191D02*
X114462Y82013D01*
X112640Y80191D02*
X112640Y76547D01*
X114462Y74725D01*
X121749Y74725D01*
X123571Y76547D01*
X123571Y80191D01*
X121749Y82013D01*
X123571Y86419D02*
X119927Y90063D01*
X116283Y90063D01*
X112640Y86419D01*
X123571Y105909D02*
X123571Y113196D01*
X123571Y105909D02*
X116283Y113196D01*
X114462Y113196D01*
X112640Y111375D01*
X112640Y107731D01*
X114462Y105909D01*
X114462Y117603D02*
X121749Y117603D01*
X114462Y117603D02*
X112640Y119425D01*
X112640Y123069D01*
X114462Y124890D01*
X121749Y124890D01*
X123571Y123069D01*
X123571Y119425D01*
X121749Y117603D01*
X114462Y124890D01*
X116283Y129297D02*
X112640Y132941D01*
X123571Y132941D01*
X123571Y136584D02*
X123571Y129297D01*
X121749Y140991D02*
X114462Y140991D01*
X112640Y142813D01*
X112640Y146456D01*
X114462Y148278D01*
X121749Y148278D01*
X123571Y146456D01*
X123571Y142813D01*
X121749Y140991D01*
X114462Y148278D01*
X118105Y164379D02*
X118105Y171666D01*
X123571Y187767D02*
X123571Y195054D01*
X123571Y187767D02*
X116283Y195054D01*
X114462Y195054D01*
X112640Y193232D01*
X112640Y189589D01*
X114462Y187767D01*
X114462Y199461D02*
X121749Y199461D01*
X114462Y199461D02*
X112640Y201283D01*
X112640Y204926D01*
X114462Y206748D01*
X121749Y206748D01*
X123571Y204926D01*
X123571Y201283D01*
X121749Y199461D01*
X114462Y206748D01*
X116283Y211155D02*
X112640Y214798D01*
X123571Y214798D01*
X123571Y211155D02*
X123571Y218442D01*
X121749Y222849D02*
X123571Y224670D01*
X123571Y228314D01*
X121749Y230136D01*
X114462Y230136D01*
X112640Y228314D01*
X112640Y224670D01*
X114462Y222849D01*
X116283Y222849D01*
X118105Y224670D01*
X118105Y230136D01*
D11*
X129786Y74933D02*
X138938Y74933D01*
X129786Y77983D02*
X129786Y71882D01*
X129786Y81705D02*
X138938Y81705D01*
X134362Y81705D02*
X132837Y83230D01*
X132837Y86281D01*
X134362Y87806D01*
X138938Y87806D01*
X138938Y93053D02*
X138938Y96104D01*
X138938Y93053D02*
X137413Y91528D01*
X134362Y91528D01*
X132837Y93053D01*
X132837Y96104D01*
X134362Y97629D01*
X135887Y97629D01*
X135887Y91528D01*
X138938Y101351D02*
X129786Y101351D01*
X138938Y101351D02*
X138938Y107452D01*
X132837Y111174D02*
X132837Y112699D01*
X138938Y112699D01*
X138938Y111174D02*
X138938Y114224D01*
X129786Y112699D02*
X128261Y112699D01*
X131312Y119248D02*
X137413Y119248D01*
X138938Y120773D01*
X132837Y120773D02*
X132837Y117722D01*
X131312Y125796D02*
X137413Y125796D01*
X138938Y127322D01*
X132837Y127322D02*
X132837Y124271D01*
X129786Y130820D02*
X129786Y132345D01*
X138938Y132345D01*
X138938Y130820D02*
X138938Y133870D01*
X138938Y138894D02*
X138938Y141944D01*
X138938Y138894D02*
X137413Y137368D01*
X134362Y137368D01*
X132837Y138894D01*
X132837Y141944D01*
X134362Y143469D01*
X135887Y143469D01*
X135887Y137368D01*
X129786Y147191D02*
X129786Y153292D01*
X129786Y147191D02*
X138938Y147191D01*
X138938Y153292D01*
X134362Y150242D02*
X134362Y147191D01*
X132837Y157014D02*
X138938Y157014D01*
X132837Y157014D02*
X132837Y161590D01*
X134362Y163115D01*
X138938Y163115D01*
X141989Y169888D02*
X141989Y171413D01*
X140463Y172938D01*
X132837Y172938D01*
X132837Y168362D01*
X134362Y166837D01*
X137413Y166837D01*
X138938Y168362D01*
X138938Y172938D01*
X132837Y176660D02*
X132837Y178185D01*
X138938Y178185D01*
X138938Y176660D02*
X138938Y179711D01*
X129786Y178185D02*
X128261Y178185D01*
X132837Y183209D02*
X138938Y183209D01*
X132837Y183209D02*
X132837Y187785D01*
X134362Y189310D01*
X138938Y189310D01*
X138938Y194557D02*
X138938Y197607D01*
X138938Y194557D02*
X137413Y193032D01*
X134362Y193032D01*
X132837Y194557D01*
X132837Y197607D01*
X134362Y199133D01*
X135887Y199133D01*
X135887Y193032D01*
X138938Y204380D02*
X138938Y207430D01*
X138938Y204380D02*
X137413Y202855D01*
X134362Y202855D01*
X132837Y204380D01*
X132837Y207430D01*
X134362Y208956D01*
X135887Y208956D01*
X135887Y202855D01*
X138938Y212677D02*
X132837Y212677D01*
X135887Y212677D02*
X132837Y215728D01*
X132837Y217253D01*
X138938Y220863D02*
X138938Y225439D01*
X137413Y226964D01*
X135887Y225439D01*
X135887Y222389D01*
X134362Y220863D01*
X132837Y222389D01*
X132837Y226964D01*
X137413Y230686D02*
X138938Y230686D01*
X137413Y230686D02*
X137413Y232211D01*
X138938Y232211D01*
X138938Y230686D01*
X138938Y237123D02*
X138938Y240174D01*
X137413Y241699D01*
X134362Y241699D01*
X132837Y240174D01*
X132837Y237123D01*
X134362Y235598D01*
X137413Y235598D01*
X138938Y237123D01*
X138938Y245421D02*
X132837Y245421D01*
X135887Y245421D02*
X132837Y248471D01*
X132837Y249996D01*
X141989Y256657D02*
X141989Y258182D01*
X140463Y259708D01*
X132837Y259708D01*
X132837Y255132D01*
X134362Y253606D01*
X137413Y253606D01*
X138938Y255132D01*
X138938Y259708D01*
D12*
X11432Y313690D02*
X8890Y316232D01*
X11432Y313690D02*
X13974Y313690D01*
X16517Y316232D01*
X16517Y328943D01*
X19059Y328943D02*
X13974Y328943D01*
X25262Y328943D02*
X25262Y313690D01*
X25262Y328943D02*
X32888Y328943D01*
X35430Y326401D01*
X35430Y321317D01*
X32888Y318774D01*
X25262Y318774D01*
X41633Y313690D02*
X51802Y313690D01*
X41633Y313690D02*
X51802Y323859D01*
X51802Y326401D01*
X49260Y328943D01*
X44175Y328943D01*
X41633Y326401D01*
X161290Y316232D02*
X163832Y313690D01*
X166374Y313690D01*
X168917Y316232D01*
X168917Y328943D01*
X171459Y328943D02*
X166374Y328943D01*
X177662Y328943D02*
X177662Y313690D01*
X177662Y328943D02*
X185288Y328943D01*
X187830Y326401D01*
X187830Y321317D01*
X185288Y318774D01*
X177662Y318774D01*
X194033Y323859D02*
X199117Y328943D01*
X199117Y313690D01*
X194033Y313690D02*
X204202Y313690D01*
D11*
X21082Y299720D02*
X21329Y299717D01*
X21577Y299708D01*
X21824Y299693D01*
X22070Y299672D01*
X22316Y299645D01*
X22561Y299612D01*
X22806Y299573D01*
X23049Y299528D01*
X23291Y299477D01*
X23532Y299420D01*
X23771Y299358D01*
X24009Y299289D01*
X24245Y299215D01*
X24479Y299135D01*
X24711Y299050D01*
X24941Y298958D01*
X25169Y298862D01*
X25394Y298759D01*
X25617Y298652D01*
X25837Y298538D01*
X26054Y298420D01*
X26269Y298296D01*
X26480Y298167D01*
X26688Y298033D01*
X26893Y297894D01*
X27094Y297750D01*
X27292Y297602D01*
X27486Y297448D01*
X27676Y297290D01*
X27862Y297127D01*
X28044Y296960D01*
X28222Y296788D01*
X28396Y296612D01*
X28566Y296432D01*
X28731Y296247D01*
X28891Y296059D01*
X29047Y295867D01*
X29199Y295671D01*
X29345Y295472D01*
X29487Y295269D01*
X29623Y295062D01*
X29755Y294853D01*
X29881Y294640D01*
X30002Y294424D01*
X30118Y294206D01*
X30228Y293984D01*
X30333Y293760D01*
X30433Y293534D01*
X30527Y293305D01*
X30615Y293074D01*
X30698Y292840D01*
X30775Y292605D01*
X30846Y292368D01*
X30912Y292130D01*
X30971Y291890D01*
X31025Y291648D01*
X31073Y291405D01*
X31115Y291162D01*
X31151Y290917D01*
X31181Y290671D01*
X31205Y290425D01*
X31223Y290178D01*
X31235Y289931D01*
X31241Y289684D01*
X31241Y289436D01*
X31235Y289189D01*
X31223Y288942D01*
X31205Y288695D01*
X31181Y288449D01*
X31151Y288203D01*
X31115Y287958D01*
X31073Y287715D01*
X31025Y287472D01*
X30971Y287230D01*
X30912Y286990D01*
X30846Y286752D01*
X30775Y286515D01*
X30698Y286280D01*
X30615Y286046D01*
X30527Y285815D01*
X30433Y285586D01*
X30333Y285360D01*
X30228Y285136D01*
X30118Y284914D01*
X30002Y284696D01*
X29881Y284480D01*
X29755Y284267D01*
X29623Y284058D01*
X29487Y283851D01*
X29345Y283648D01*
X29199Y283449D01*
X29047Y283253D01*
X28891Y283061D01*
X28731Y282873D01*
X28566Y282688D01*
X28396Y282508D01*
X28222Y282332D01*
X28044Y282160D01*
X27862Y281993D01*
X27676Y281830D01*
X27486Y281672D01*
X27292Y281518D01*
X27094Y281370D01*
X26893Y281226D01*
X26688Y281087D01*
X26480Y280953D01*
X26269Y280824D01*
X26054Y280700D01*
X25837Y280582D01*
X25617Y280468D01*
X25394Y280361D01*
X25169Y280258D01*
X24941Y280162D01*
X24711Y280070D01*
X24479Y279985D01*
X24245Y279905D01*
X24009Y279831D01*
X23771Y279762D01*
X23532Y279700D01*
X23291Y279643D01*
X23049Y279592D01*
X22806Y279547D01*
X22561Y279508D01*
X22316Y279475D01*
X22070Y279448D01*
X21824Y279427D01*
X21577Y279412D01*
X21329Y279403D01*
X21082Y279400D01*
X10922Y279400D02*
X10675Y279403D01*
X10427Y279412D01*
X10180Y279427D01*
X9934Y279448D01*
X9688Y279475D01*
X9443Y279508D01*
X9198Y279547D01*
X8955Y279592D01*
X8713Y279643D01*
X8472Y279700D01*
X8233Y279762D01*
X7995Y279831D01*
X7759Y279905D01*
X7525Y279985D01*
X7293Y280070D01*
X7063Y280162D01*
X6835Y280258D01*
X6610Y280361D01*
X6387Y280468D01*
X6167Y280582D01*
X5950Y280700D01*
X5735Y280824D01*
X5524Y280953D01*
X5316Y281087D01*
X5111Y281226D01*
X4910Y281370D01*
X4712Y281518D01*
X4518Y281672D01*
X4328Y281830D01*
X4142Y281993D01*
X3960Y282160D01*
X3782Y282332D01*
X3608Y282508D01*
X3438Y282688D01*
X3273Y282873D01*
X3113Y283061D01*
X2957Y283253D01*
X2805Y283449D01*
X2659Y283648D01*
X2517Y283851D01*
X2381Y284058D01*
X2249Y284267D01*
X2123Y284480D01*
X2002Y284696D01*
X1886Y284914D01*
X1776Y285136D01*
X1671Y285360D01*
X1571Y285586D01*
X1477Y285815D01*
X1389Y286046D01*
X1306Y286280D01*
X1229Y286515D01*
X1158Y286752D01*
X1092Y286990D01*
X1033Y287230D01*
X979Y287472D01*
X931Y287715D01*
X889Y287958D01*
X853Y288203D01*
X823Y288449D01*
X799Y288695D01*
X781Y288942D01*
X769Y289189D01*
X763Y289436D01*
X763Y289684D01*
X769Y289931D01*
X781Y290178D01*
X799Y290425D01*
X823Y290671D01*
X853Y290917D01*
X889Y291162D01*
X931Y291405D01*
X979Y291648D01*
X1033Y291890D01*
X1092Y292130D01*
X1158Y292368D01*
X1229Y292605D01*
X1306Y292840D01*
X1389Y293074D01*
X1477Y293305D01*
X1571Y293534D01*
X1671Y293760D01*
X1776Y293984D01*
X1886Y294206D01*
X2002Y294424D01*
X2123Y294640D01*
X2249Y294853D01*
X2381Y295062D01*
X2517Y295269D01*
X2659Y295472D01*
X2805Y295671D01*
X2957Y295867D01*
X3113Y296059D01*
X3273Y296247D01*
X3438Y296432D01*
X3608Y296612D01*
X3782Y296788D01*
X3960Y296960D01*
X4142Y297127D01*
X4328Y297290D01*
X4518Y297448D01*
X4712Y297602D01*
X4910Y297750D01*
X5111Y297894D01*
X5316Y298033D01*
X5524Y298167D01*
X5735Y298296D01*
X5950Y298420D01*
X6167Y298538D01*
X6387Y298652D01*
X6610Y298759D01*
X6835Y298862D01*
X7063Y298958D01*
X7293Y299050D01*
X7525Y299135D01*
X7759Y299215D01*
X7995Y299289D01*
X8233Y299358D01*
X8472Y299420D01*
X8713Y299477D01*
X8955Y299528D01*
X9198Y299573D01*
X9443Y299612D01*
X9688Y299645D01*
X9934Y299672D01*
X10180Y299693D01*
X10427Y299708D01*
X10675Y299717D01*
X10922Y299720D01*
D13*
X33782Y289560D03*
X-1778Y289560D03*
X16002Y302260D03*
X16002Y276860D03*
D12*
X87630Y262382D02*
X97799Y262382D01*
X87630Y262382D02*
X97799Y272551D01*
X97799Y275093D01*
X95257Y277635D01*
X90172Y277635D01*
X87630Y275093D01*
X104002Y277635D02*
X114170Y277635D01*
X104002Y277635D02*
X104002Y270009D01*
X109086Y272551D01*
X111628Y272551D01*
X114170Y270009D01*
X114170Y264924D01*
X111628Y262382D01*
X106544Y262382D01*
X104002Y264924D01*
X120373Y275093D02*
X122915Y277635D01*
X128000Y277635D01*
X130542Y275093D01*
X130542Y272551D01*
X128000Y270009D01*
X125457Y270009D01*
X128000Y270009D02*
X130542Y267466D01*
X130542Y264924D01*
X128000Y262382D01*
X122915Y262382D01*
X120373Y264924D01*
X136745Y262382D02*
X146913Y262382D01*
X136745Y262382D02*
X146913Y272551D01*
X146913Y275093D01*
X144371Y277635D01*
X139287Y277635D01*
X136745Y275093D01*
D11*
X52324Y279400D02*
X52571Y279403D01*
X52819Y279412D01*
X53066Y279427D01*
X53312Y279448D01*
X53558Y279475D01*
X53803Y279508D01*
X54048Y279547D01*
X54291Y279592D01*
X54533Y279643D01*
X54774Y279700D01*
X55013Y279762D01*
X55251Y279831D01*
X55487Y279905D01*
X55721Y279985D01*
X55953Y280070D01*
X56183Y280162D01*
X56411Y280258D01*
X56636Y280361D01*
X56859Y280468D01*
X57079Y280582D01*
X57296Y280700D01*
X57511Y280824D01*
X57722Y280953D01*
X57930Y281087D01*
X58135Y281226D01*
X58336Y281370D01*
X58534Y281518D01*
X58728Y281672D01*
X58918Y281830D01*
X59104Y281993D01*
X59286Y282160D01*
X59464Y282332D01*
X59638Y282508D01*
X59808Y282688D01*
X59973Y282873D01*
X60133Y283061D01*
X60289Y283253D01*
X60441Y283449D01*
X60587Y283648D01*
X60729Y283851D01*
X60865Y284058D01*
X60997Y284267D01*
X61123Y284480D01*
X61244Y284696D01*
X61360Y284914D01*
X61470Y285136D01*
X61575Y285360D01*
X61675Y285586D01*
X61769Y285815D01*
X61857Y286046D01*
X61940Y286280D01*
X62017Y286515D01*
X62088Y286752D01*
X62154Y286990D01*
X62213Y287230D01*
X62267Y287472D01*
X62315Y287715D01*
X62357Y287958D01*
X62393Y288203D01*
X62423Y288449D01*
X62447Y288695D01*
X62465Y288942D01*
X62477Y289189D01*
X62483Y289436D01*
X62483Y289684D01*
X62477Y289931D01*
X62465Y290178D01*
X62447Y290425D01*
X62423Y290671D01*
X62393Y290917D01*
X62357Y291162D01*
X62315Y291405D01*
X62267Y291648D01*
X62213Y291890D01*
X62154Y292130D01*
X62088Y292368D01*
X62017Y292605D01*
X61940Y292840D01*
X61857Y293074D01*
X61769Y293305D01*
X61675Y293534D01*
X61575Y293760D01*
X61470Y293984D01*
X61360Y294206D01*
X61244Y294424D01*
X61123Y294640D01*
X60997Y294853D01*
X60865Y295062D01*
X60729Y295269D01*
X60587Y295472D01*
X60441Y295671D01*
X60289Y295867D01*
X60133Y296059D01*
X59973Y296247D01*
X59808Y296432D01*
X59638Y296612D01*
X59464Y296788D01*
X59286Y296960D01*
X59104Y297127D01*
X58918Y297290D01*
X58728Y297448D01*
X58534Y297602D01*
X58336Y297750D01*
X58135Y297894D01*
X57930Y298033D01*
X57722Y298167D01*
X57511Y298296D01*
X57296Y298420D01*
X57079Y298538D01*
X56859Y298652D01*
X56636Y298759D01*
X56411Y298862D01*
X56183Y298958D01*
X55953Y299050D01*
X55721Y299135D01*
X55487Y299215D01*
X55251Y299289D01*
X55013Y299358D01*
X54774Y299420D01*
X54533Y299477D01*
X54291Y299528D01*
X54048Y299573D01*
X53803Y299612D01*
X53558Y299645D01*
X53312Y299672D01*
X53066Y299693D01*
X52819Y299708D01*
X52571Y299717D01*
X52324Y299720D01*
X42164Y299720D02*
X41917Y299717D01*
X41669Y299708D01*
X41422Y299693D01*
X41176Y299672D01*
X40930Y299645D01*
X40685Y299612D01*
X40440Y299573D01*
X40197Y299528D01*
X39955Y299477D01*
X39714Y299420D01*
X39475Y299358D01*
X39237Y299289D01*
X39001Y299215D01*
X38767Y299135D01*
X38535Y299050D01*
X38305Y298958D01*
X38077Y298862D01*
X37852Y298759D01*
X37629Y298652D01*
X37409Y298538D01*
X37192Y298420D01*
X36977Y298296D01*
X36766Y298167D01*
X36558Y298033D01*
X36353Y297894D01*
X36152Y297750D01*
X35954Y297602D01*
X35760Y297448D01*
X35570Y297290D01*
X35384Y297127D01*
X35202Y296960D01*
X35024Y296788D01*
X34850Y296612D01*
X34680Y296432D01*
X34515Y296247D01*
X34355Y296059D01*
X34199Y295867D01*
X34047Y295671D01*
X33901Y295472D01*
X33759Y295269D01*
X33623Y295062D01*
X33491Y294853D01*
X33365Y294640D01*
X33244Y294424D01*
X33128Y294206D01*
X33018Y293984D01*
X32913Y293760D01*
X32813Y293534D01*
X32719Y293305D01*
X32631Y293074D01*
X32548Y292840D01*
X32471Y292605D01*
X32400Y292368D01*
X32334Y292130D01*
X32275Y291890D01*
X32221Y291648D01*
X32173Y291405D01*
X32131Y291162D01*
X32095Y290917D01*
X32065Y290671D01*
X32041Y290425D01*
X32023Y290178D01*
X32011Y289931D01*
X32005Y289684D01*
X32005Y289436D01*
X32011Y289189D01*
X32023Y288942D01*
X32041Y288695D01*
X32065Y288449D01*
X32095Y288203D01*
X32131Y287958D01*
X32173Y287715D01*
X32221Y287472D01*
X32275Y287230D01*
X32334Y286990D01*
X32400Y286752D01*
X32471Y286515D01*
X32548Y286280D01*
X32631Y286046D01*
X32719Y285815D01*
X32813Y285586D01*
X32913Y285360D01*
X33018Y285136D01*
X33128Y284914D01*
X33244Y284696D01*
X33365Y284480D01*
X33491Y284267D01*
X33623Y284058D01*
X33759Y283851D01*
X33901Y283648D01*
X34047Y283449D01*
X34199Y283253D01*
X34355Y283061D01*
X34515Y282873D01*
X34680Y282688D01*
X34850Y282508D01*
X35024Y282332D01*
X35202Y282160D01*
X35384Y281993D01*
X35570Y281830D01*
X35760Y281672D01*
X35954Y281518D01*
X36152Y281370D01*
X36353Y281226D01*
X36558Y281087D01*
X36766Y280953D01*
X36977Y280824D01*
X37192Y280700D01*
X37409Y280582D01*
X37629Y280468D01*
X37852Y280361D01*
X38077Y280258D01*
X38305Y280162D01*
X38535Y280070D01*
X38767Y279985D01*
X39001Y279905D01*
X39237Y279831D01*
X39475Y279762D01*
X39714Y279700D01*
X39955Y279643D01*
X40197Y279592D01*
X40440Y279547D01*
X40685Y279508D01*
X40930Y279475D01*
X41176Y279448D01*
X41422Y279427D01*
X41669Y279412D01*
X41917Y279403D01*
X42164Y279400D01*
D13*
X65024Y289560D03*
X29464Y289560D03*
X47244Y302260D03*
X47244Y276860D03*
D12*
X74930Y32004D02*
X85099Y32004D01*
X74930Y32004D02*
X85099Y42173D01*
X85099Y44715D01*
X82557Y47257D01*
X77472Y47257D01*
X74930Y44715D01*
X91302Y47257D02*
X101470Y47257D01*
X101470Y44715D01*
X91302Y34546D01*
X91302Y32004D01*
X107673Y44715D02*
X110215Y47257D01*
X115300Y47257D01*
X117842Y44715D01*
X117842Y42173D01*
X115300Y39631D01*
X112757Y39631D01*
X115300Y39631D02*
X117842Y37088D01*
X117842Y34546D01*
X115300Y32004D01*
X110215Y32004D01*
X107673Y34546D01*
X124045Y32004D02*
X134213Y32004D01*
X124045Y32004D02*
X134213Y42173D01*
X134213Y44715D01*
X131671Y47257D01*
X126587Y47257D01*
X124045Y44715D01*
D11*
X132080Y330200D02*
X134620Y332740D01*
X132080Y330200D02*
X129540Y332740D01*
X132080Y309880D02*
X134620Y307340D01*
X132080Y309880D02*
X129540Y307340D01*
X109220Y307340D01*
X106680Y309880D01*
X154940Y307340D02*
X157480Y309880D01*
X154940Y307340D02*
X134620Y307340D01*
X157480Y309880D02*
X157480Y330200D01*
X154940Y332740D01*
X134620Y332740D01*
X129540Y332740D02*
X109220Y332740D01*
X106680Y330200D01*
X106680Y309880D01*
X83566Y332486D02*
X81026Y329946D01*
X78486Y332486D01*
X81026Y309626D02*
X83566Y307086D01*
X81026Y309626D02*
X78486Y307086D01*
X58166Y307086D01*
X55626Y309626D01*
X103886Y307086D02*
X106426Y309626D01*
X103886Y307086D02*
X83566Y307086D01*
X106426Y309626D02*
X106426Y329946D01*
X103886Y332486D01*
X83566Y332486D01*
X78486Y332486D02*
X58166Y332486D01*
X55626Y329946D01*
X55626Y309626D01*
X83820Y302260D02*
X83820Y276860D01*
X71120Y289560D02*
X83820Y302260D01*
X71120Y289560D02*
X83820Y276860D01*
D14*
X72390Y289814D02*
X82804Y300228D01*
X72390Y289814D02*
X83312Y278892D01*
D15*
X90805Y289560D03*
D16*
X81915Y289560D03*
D17*
X78740Y289560D03*
D18*
X76200Y289560D03*
D19*
X73660Y289560D03*
D20*
X83185Y279400D03*
D21*
X81915Y280035D03*
X79375Y282575D03*
X76835Y285115D03*
X74295Y287655D03*
X74295Y291465D03*
X76835Y294005D03*
X79375Y296545D03*
D20*
X83185Y299720D03*
D21*
X81915Y299085D03*
D11*
X83820Y264160D02*
X83820Y238760D01*
X71120Y251460D02*
X83820Y264160D01*
X71120Y251460D02*
X83820Y238760D01*
D14*
X72390Y251714D02*
X82804Y262128D01*
X72390Y251714D02*
X83312Y240792D01*
D15*
X90805Y251460D03*
D16*
X81915Y251460D03*
D17*
X78740Y251460D03*
D18*
X76200Y251460D03*
D19*
X73660Y251460D03*
D20*
X83185Y241300D03*
D21*
X81915Y241935D03*
X79375Y244475D03*
X76835Y247015D03*
X74295Y249555D03*
X74295Y253365D03*
X76835Y255905D03*
X79375Y258445D03*
D20*
X83185Y261620D03*
D21*
X81915Y260985D03*
D11*
X137160Y71120D02*
X137160Y45720D01*
X149860Y58420D01*
X137160Y71120D01*
D14*
X138176Y69088D02*
X148590Y58674D01*
X138176Y48260D01*
D15*
X130175Y58420D03*
D16*
X139065Y58420D03*
D17*
X142240Y58420D03*
D18*
X144780Y58420D03*
D19*
X147320Y58420D03*
D20*
X137795Y68580D03*
D21*
X139065Y67945D03*
X141605Y65405D03*
X144145Y62865D03*
X146685Y60325D03*
X146685Y56515D03*
X144145Y53975D03*
X141605Y51435D03*
D20*
X137795Y48260D03*
D21*
X139065Y48895D03*
D11*
X137160Y33020D02*
X137160Y7620D01*
X149860Y20320D01*
X137160Y33020D01*
D14*
X138176Y30988D02*
X148590Y20574D01*
X138176Y10160D01*
D15*
X130175Y20320D03*
D16*
X139065Y20320D03*
D17*
X142240Y20320D03*
D18*
X144780Y20320D03*
D19*
X147320Y20320D03*
D20*
X137795Y30480D03*
D21*
X139065Y29845D03*
X141605Y27305D03*
X144145Y24765D03*
X146685Y22225D03*
X146685Y18415D03*
X144145Y15875D03*
X141605Y13335D03*
D20*
X137795Y10160D03*
D21*
X139065Y10795D03*
M02*
